<?xml version="1.0" standalone="no"?>
<!DOCTYPE svg PUBLIC "-//W3C//DTD SVG 1.1//EN" "http://www.w3.org/Graphics/SVG/1.1/DTD/svg11.dtd" >
<svg xmlns="http://www.w3.org/2000/svg">
<metadata></metadata>
<defs>
<font id="nastebold" horiz-adv-x="1177" >
<font-face units-per-em="2048" ascent="1638" descent="-410" />
<missing-glyph horiz-adv-x="460" />
<glyph unicode="&#xfb01;" horiz-adv-x="1282" d="M78 721v293h74v51q0 113 32.5 189.5t98 122.5t164 65.5t229.5 19.5l-35 -293q-45 0 -72.5 -8t-43 -21.5t-20.5 -33t-5 -41.5v-51h157v-84l-20 -209h-137v-721h-348v721h-74zM788 1346q0 43 16.5 79.5t45.5 64.5t66.5 44t82.5 16q41 0 79 -16t65.5 -44t44 -64.5 t16.5 -79.5t-16.5 -82t-44 -68t-65.5 -45t-79 -16q-45 0 -82.5 16t-66.5 45t-45.5 68t-16.5 82zM821 0v1014h348v-1014h-348z" />
<glyph unicode="&#xfb02;" horiz-adv-x="1282" d="M78 721v293h74v51q0 113 32.5 189.5t98 122.5t164 65.5t229.5 19.5l-35 -293q-45 0 -72.5 -8t-43 -21.5t-20.5 -33t-5 -41.5v-51h157v-84l-20 -209h-137v-721h-348v721h-74zM821 0v1462h348v-1462h-348z" />
<glyph unicode="&#xfb03;" horiz-adv-x="1990" d="M78 721v293h74v51q0 113 32.5 189.5t98 122.5t164 65.5t229.5 19.5l-35 -293q-45 0 -72.5 -8t-43 -21.5t-20.5 -33t-5 -41.5v-51h157v-84l-20 -209h-137v-721h-348v721h-74zM786 721v293h74v51q0 113 33 189.5t98.5 122.5t163.5 65.5t229 19.5l-34 -293q-45 0 -73 -8 t-43 -21.5t-20.5 -33t-5.5 -41.5v-51h158v-84l-20 -209h-138v-721h-348v721h-74zM1497 1346q0 43 16.5 79.5t45 64.5t66.5 44t83 16q41 0 79 -16t65.5 -44t44 -64.5t16.5 -79.5t-16.5 -82t-44 -68t-65.5 -45t-79 -16q-45 0 -83 16t-66.5 45t-45 68t-16.5 82zM1530 0v1014 h348v-1014h-348z" />
<glyph unicode="&#xfb04;" horiz-adv-x="1990" d="M78 721v293h74v51q0 113 32.5 189.5t98 122.5t164 65.5t229.5 19.5l-35 -293q-45 0 -72.5 -8t-43 -21.5t-20.5 -33t-5 -41.5v-51h157v-84l-20 -209h-137v-721h-348v721h-74zM786 721v293h74v51q0 113 33 189.5t98.5 122.5t163.5 65.5t229 19.5l-34 -293q-45 0 -73 -8 t-43 -21.5t-20.5 -33t-5.5 -41.5v-51h158v-84l-20 -209h-138v-721h-348v721h-74zM1530 0v1462h348v-1462h-348z" />
<glyph horiz-adv-x="0" />
<glyph horiz-adv-x="682" />
<glyph unicode=" "  horiz-adv-x="460" />
<glyph unicode="&#x09;" horiz-adv-x="460" />
<glyph unicode="&#xa0;" horiz-adv-x="460" />
<glyph unicode="!" horiz-adv-x="591" d="M88 184q0 43 16.5 80t45 64.5t66.5 44t83 16.5q41 0 79 -16.5t65.5 -44t44 -64.5t16.5 -80t-16.5 -82t-44 -67.5t-65.5 -45t-79 -16.5q-45 0 -83 16.5t-66.5 45t-45 67.5t-16.5 82zM117 1176v206h358v-206l-63 -684h-232z" />
<glyph unicode="&#x22;" horiz-adv-x="901" d="M92 1176v206h318v-206l-64 -254h-190zM492 1176v206h317v-206l-64 -254h-190z" />
<glyph unicode="#" horiz-adv-x="1476" d="M68 260l57 328h168l37 205h-164l57 327h164l47 262h348l-47 -262h195l47 262h348l-47 -262h131l-57 -327h-131l-37 -205h127l-58 -328h-129l-45 -260h-348l45 260h-194l-45 -260h-349l45 260h-165zM641 588h195l36 205h-194z" />
<glyph unicode="$" horiz-adv-x="1306" d="M59 168l146 289q104 -53 203.5 -88t193.5 -50v226q-156 47 -253 103.5t-151.5 115.5t-74 120.5t-19.5 119.5q0 82 32 155.5t95.5 128.5t155.5 88t213 33h2v215h88v-219q55 -4 118.5 -15.5t131.5 -32t136.5 -50t133.5 -70.5l-133 -291q-88 43 -193.5 75t-193.5 42v-201 q164 -49 269.5 -99t166 -106.5t83 -120t22.5 -139.5q0 -98 -38 -177t-107.5 -134t-166 -84t-212.5 -29h-17v-196h-88v203q-129 14 -273.5 60t-269.5 128zM498 999q0 -31 20.5 -56t83.5 -50v176q-47 -4 -75.5 -21.5t-28.5 -48.5zM690 311h29q55 0 94 22.5t39 65.5 q0 47 -37 73t-125 48v-209z" />
<glyph unicode="%" horiz-adv-x="1505" d="M61 1092q0 68 25 125t68 100t103 67.5t132 24.5q74 0 134.5 -24.5t103.5 -67.5t67.5 -100.5t24.5 -124.5q0 -68 -24.5 -127.5t-67.5 -102.5t-103.5 -67.5t-134.5 -24.5q-80 0 -141.5 26.5t-102.5 71.5t-62.5 104t-21.5 120zM254 0l799 1382h186l-799 -1382h-186z M279 1087q0 -53 31.5 -79.5t78.5 -26.5t80 29.5t33 76.5q0 53 -33 81t-80 28q-45 0 -77.5 -31t-32.5 -78zM786 295q0 68 25 125t68 100t103 67.5t132 24.5q74 0 134.5 -24.5t103.5 -67.5t67.5 -100.5t24.5 -124.5q0 -68 -24.5 -127t-67.5 -102t-103.5 -68t-134.5 -25 q-80 0 -141.5 27t-102.5 72t-62.5 103.5t-21.5 119.5zM1004 291q0 -53 31.5 -80t78.5 -27t80 30t33 77q0 53 -33 80.5t-80 27.5q-45 0 -77.5 -30.5t-32.5 -77.5z" />
<glyph unicode="&#x26;" horiz-adv-x="1486" d="M72 342q0 111 70.5 203t201.5 164q-47 43 -77.5 89t-48 89t-25 83t-7.5 72q0 80 37 147.5t99.5 116t148.5 76t184 27.5q100 0 182.5 -28.5t140.5 -77t89 -112t31 -134.5q0 -88 -47 -184.5t-140 -178.5l113 -98q35 45 63.5 95t55.5 106l293 -131q-37 -80 -78 -151 t-86 -134l174 -150l-244 -264l-182 158q-104 -74 -220 -113t-245 -39q-104 0 -193.5 29t-154 78t-100 116.5t-35.5 145.5zM440 397q0 -39 42 -63.5t116 -24.5q76 0 160 43l-193 166q-59 -23 -92 -51.5t-33 -69.5zM563 1022q0 -35 29 -54.5t78 -62.5l14 -12q43 49 43 113 q0 33 -24.5 58.5t-65.5 25.5q-29 0 -51.5 -17.5t-22.5 -50.5z" />
<glyph unicode="'" horiz-adv-x="501" d="M92 1176v206h318v-206l-64 -254h-190z" />
<glyph unicode="(" horiz-adv-x="829" d="M63 449q0 324 147.5 579.5t418.5 435.5l184 -266q-111 -80 -183.5 -163t-116.5 -174t-62.5 -192.5t-18.5 -219.5q0 -119 18.5 -220.5t63.5 -191.5t119 -172t182 -160l-164 -270q-274 186 -431 439t-157 575z" />
<glyph unicode=")" horiz-adv-x="829" d="M14 -295q109 78 182.5 160t117.5 172t63.5 191.5t19.5 220.5t-18.5 220t-62.5 192t-116.5 174t-183.5 163l185 266q270 -180 417.5 -436t147.5 -579q0 -322 -156.5 -575t-431.5 -439z" />
<glyph unicode="*" horiz-adv-x="909" d="M66 1004l77 239l189 -61v200h252v-200l180 57l78 -238l-176 -57l112 -158l-203 -147l-114 160l-115 -158l-203 147l113 154z" />
<glyph unicode="+" horiz-adv-x="1009" d="M82 344v309h268v269h307v-269h271v-309h-271v-268h-307v268h-268z" />
<glyph unicode="," horiz-adv-x="577" d="M78 186q0 43 16.5 80t45 64.5t66.5 44t83 16.5q96 0 150.5 -67.5t54.5 -163.5v-8q-2 -115 -64.5 -226.5t-214.5 -212.5l-49 68q43 51 71.5 98t45.5 96q-43 2 -81 18.5t-65.5 45.5t-43 66.5t-15.5 80.5z" />
<glyph unicode="-" horiz-adv-x="1067" d="M111 338v328h845v-328h-845z" />
<glyph unicode="." horiz-adv-x="571" d="M78 184q0 43 16.5 80t45 64.5t66.5 44t83 16.5q43 0 80 -16.5t64.5 -44t44 -64.5t16.5 -80t-16.5 -82t-44 -67.5t-65.5 -45t-79 -16.5q-43 0 -81 16.5t-67.5 45t-46 67.5t-16.5 82z" />
<glyph unicode="/" horiz-adv-x="790" d="M61 0l394 1382h276l-393 -1382h-277z" />
<glyph unicode="0" horiz-adv-x="1452" d="M84 690q0 178 50 313.5t138 225.5t204 135t249 45t250 -45t205 -135t138 -225.5t50 -313.5q0 -180 -50 -314t-138 -223.5t-205 -134.5t-250 -45t-249 45t-204 134.5t-138 223.5t-50 314zM453 690q0 -92 21.5 -162.5t58 -119t87 -73t105.5 -24.5q57 0 107.5 24.5t87 73 t58 119t21.5 162.5t-21.5 163t-58 120t-87 73.5t-107.5 24.5q-55 0 -105.5 -24.5t-87 -73.5t-58 -120t-21.5 -163z" />
<glyph unicode="1" horiz-adv-x="1011" d="M31 1178l358 204h359v-1054h204v-328h-770v328h207v682l-207 -117z" />
<glyph unicode="2" horiz-adv-x="1263" d="M51 1161q70 66 150 113t161.5 76.5t160.5 44t149 14.5q111 0 203 -33t156.5 -89t100 -132t35.5 -160q0 -100 -47 -171.5t-118.5 -126t-154.5 -96.5t-154.5 -83t-121 -86t-51.5 -104h649v-328h-1040v262q0 113 49 197t124 148.5t162 113.5t161.5 92t124 85t49.5 93 q0 37 -46 58.5t-116 21.5q-37 0 -88 -7t-107.5 -23.5t-115 -44t-109.5 -68.5z" />
<glyph unicode="3" horiz-adv-x="1265" d="M47 184l154 240q55 -35 115.5 -56.5t116.5 -33.5t105.5 -17.5t82.5 -5.5q92 0 134 29t42 80q0 57 -74 94t-211 37v301q92 0 147.5 11t85 29.5t40 40t10.5 42.5q0 53 -54.5 74.5t-140.5 21.5q-111 0 -193.5 -24.5t-179.5 -59.5l-135 273q57 35 129 62.5t146.5 47 t147.5 29.5t134 10q111 0 206 -29.5t165 -82t109.5 -125t39.5 -156.5q0 -96 -49 -174t-141 -135q92 -53 141 -130t49 -176q0 -78 -31.5 -153.5t-96 -137t-165 -99.5t-235.5 -38q-72 0 -147.5 11.5t-152.5 36t-151.5 64.5t-142.5 99z" />
<glyph unicode="4" horiz-adv-x="1312" d="M55 256v328l660 798h381v-798h133v-328h-133v-256h-359v256h-682zM451 584h286v356z" />
<glyph unicode="5" horiz-adv-x="1247" d="M41 139l164 254q109 -51 192.5 -73.5t173.5 -22.5q139 0 201 41t62 111q0 39 -30 67.5t-80 46t-115.5 25.5t-139.5 8q-72 0 -146.5 -8t-138.5 -29l-43 -14l78 837h887l-31 -327h-549l-12 -144q18 2 36.5 2h37.5q154 0 263.5 -34.5t181 -96t105 -146.5t33.5 -183 q0 -104 -36.5 -192.5t-111.5 -152t-188.5 -99.5t-269.5 -36q-84 0 -152.5 11.5t-130 32t-120 51t-121.5 71.5z" />
<glyph unicode="6" horiz-adv-x="1318" d="M84 606v10q0 209 60.5 358.5t164 247t241.5 142.5t296 45q88 0 179 -12.5t194 -46.5l-105 -314q-72 25 -146.5 35t-131.5 10q-113 0 -204 -43t-138 -149q104 29 192 29q113 0 212 -28t174 -83t118 -140t43 -198q0 -104 -35 -194.5t-101.5 -157t-161.5 -105.5t-214 -39 q-115 0 -228.5 34t-203.5 108.5t-147.5 195.5t-57.5 295zM455 453q0 -72 60.5 -107t146.5 -35t144 37t58 105q0 61 -62.5 94t-152.5 33q-80 0 -137 -37t-57 -90z" />
<glyph unicode="7" horiz-adv-x="1247" d="M70 1055v327h1192l-758 -1382h-406l578 1055h-606z" />
<glyph unicode="8" horiz-adv-x="1306" d="M80 403q0 117 62.5 193t166.5 121q-78 43 -123 113.5t-45 177.5q0 98 41 172.5t110.5 125t163 77t197.5 26.5q106 0 199.5 -26.5t164 -77t111.5 -125t41 -172.5q0 -104 -46 -176t-124 -115q104 -43 166 -118t62 -187q0 -96 -44 -177t-120 -139.5t-178 -90.5t-217 -32 q-121 0 -228.5 30t-187.5 85t-126 135t-46 180zM451 428q0 -53 59 -85t143 -32q86 0 145.5 32t59.5 85q0 59 -59.5 86t-145.5 27q-84 0 -143 -27t-59 -86zM512 981q0 -47 41 -72.5t100 -25.5t101.5 25.5t42.5 72.5q0 43 -42 66.5t-102 23.5q-59 0 -100 -23.5t-41 -66.5z" />
<glyph unicode="9" horiz-adv-x="1316" d="M84 913q0 104 35 194.5t101.5 157t160.5 105.5t215 39q113 0 227.5 -34t204.5 -108.5t147.5 -195.5t57.5 -295v-10q0 -209 -60.5 -358.5t-164 -247t-241.5 -142.5t-296 -45q-88 0 -179 12.5t-194 47.5l105 313q72 -25 146.5 -35t131.5 -10q113 0 204 43t138 150 q-109 -29 -192 -29q-113 0 -212.5 27.5t-174 83t-117.5 139.5t-43 198zM453 930q0 -61 62.5 -94t152.5 -33q80 0 137 37t57 90q0 72 -60.5 106.5t-146.5 34.5t-144 -37t-58 -104z" />
<glyph unicode=":" horiz-adv-x="612" d="M98 184q0 43 16.5 80t45 64.5t66.5 44t83 16.5q41 0 79 -15.5t65.5 -43t44 -65.5t16.5 -81t-16.5 -82t-44 -67.5t-64.5 -45t-80 -16.5q-45 0 -83 16.5t-66.5 45t-45 67.5t-16.5 82zM98 836q0 43 16.5 79.5t45 64.5t66.5 44t83 16q84 0 144.5 -57t60.5 -147 q0 -43 -16.5 -82t-44 -68t-64.5 -45t-80 -16q-45 0 -83 16t-66.5 45t-45 68t-16.5 82z" />
<glyph unicode=";" horiz-adv-x="616" d="M98 836q0 43 16.5 79.5t45 64.5t66.5 44t83 16q41 0 79 -16t65.5 -44t44 -64.5t16.5 -79.5t-16.5 -82t-44 -68t-65.5 -45t-79 -16q-45 0 -83 16t-66.5 45t-45 68t-16.5 82zM100 186q0 43 16.5 80t45 64.5t66.5 44t83 16.5q41 0 79 -18.5t65.5 -50t44 -73.5t16.5 -89v-8 q-2 -115 -64.5 -226.5t-213.5 -212.5l-50 68q43 51 72 98t45 96q-43 2 -81 18.5t-65.5 45.5t-43 66.5t-15.5 80.5z" />
<glyph unicode="&#x3c;" horiz-adv-x="1116" d="M80 322v376l928 289v-352l-531 -125l518 -117v-356z" />
<glyph unicode="=" horiz-adv-x="1079" d="M117 88v328h846v-328h-846zM117 580v327h846v-327h-846z" />
<glyph unicode="&#x3e;" horiz-adv-x="1116" d="M109 635v352l927 -289v-376l-915 -285v356l518 117z" />
<glyph unicode="?" horiz-adv-x="1187" d="M53 1225q115 100 261.5 142t287.5 42q131 0 228.5 -31.5t161 -87t94 -129.5t30.5 -155q0 -74 -24.5 -142.5t-74.5 -125t-129 -98.5t-186 -62v-146h-307v397q186 0 284.5 46.5t98.5 115.5q0 39 -42 59.5t-134 20.5q-201 0 -381 -110zM358 166q0 78 55.5 132t137.5 54 q37 0 70.5 -14t59.5 -40t41 -59.5t15 -72.5q0 -41 -15 -76t-41 -60.5t-59.5 -41t-70.5 -15.5q-82 0 -137.5 56.5t-55.5 136.5z" />
<glyph unicode="@" horiz-adv-x="1673" d="M78 508q0 143 52 271t149.5 224.5t236.5 152.5t315 56q154 0 291.5 -43t240.5 -124.5t163.5 -202.5t60.5 -277q0 -90 -23.5 -172t-67.5 -146.5t-105.5 -102.5t-135.5 -38q-66 0 -126 19.5t-99 54.5q-53 -39 -117.5 -59.5t-132.5 -20.5q-80 0 -154.5 32t-131 87t-90 130 t-33.5 163q0 86 33.5 161t90 129t131 85t154.5 31q66 0 128.5 -20.5t115.5 -57.5l14 53h172v-467q0 -41 17.5 -67.5t46.5 -26.5q37 0 62.5 20.5t43 54t25.5 75.5t8 83q0 123 -41 215t-117.5 153.5t-184 93.5t-239.5 32q-145 0 -255.5 -43t-184.5 -117t-111.5 -174 t-37.5 -217q0 -115 36.5 -213t108.5 -171t176.5 -115t241.5 -42v-164q-170 0 -305 58.5t-229.5 157t-143.5 225.5t-49 264zM647 512q0 -59 37 -102t96 -43t101.5 42t42.5 103q0 59 -42.5 99t-101.5 40q-57 0 -95 -42t-38 -97z" />
<glyph unicode="A" horiz-adv-x="1470" d="M-8 0l555 1382h377l555 -1382h-375l-86 233h-567l-84 -233h-375zM571 561h328l-164 447z" />
<glyph unicode="B" horiz-adv-x="1429" d="M141 0v1382h758q88 0 158.5 -33.5t119 -89t74 -125t25.5 -141.5q0 -70 -22.5 -137.5t-67.5 -120.5q88 -53 135 -140t47 -181q0 -74 -28.5 -147.5t-85 -133t-138.5 -96.5t-186 -37h-789zM500 328h381q59 0 88.5 34.5t29.5 71.5q0 35 -27.5 65.5t-84.5 30.5h-387v-202z M500 858h293q59 0 86.5 33t27.5 67q0 35 -27.5 66t-84.5 31h-295v-197z" />
<glyph unicode="C" horiz-adv-x="1419" d="M68 684q0 182 66.5 318.5t171 226.5t233.5 135t254 45q197 0 340 -62.5t258 -170.5l-254 -240q-63 63 -153.5 99t-190.5 36q-68 0 -131.5 -27.5t-113.5 -79t-81 -122t-31 -158.5q0 -86 29 -155.5t80 -118t119.5 -74t148.5 -25.5q92 0 178 34t139 99l250 -249 q-98 -102 -244.5 -162t-322.5 -60q-154 0 -290 48.5t-237.5 139.5t-159.5 223t-58 300z" />
<glyph unicode="D" horiz-adv-x="1531" d="M141 0v1382h647q141 0 264.5 -54t214.5 -147.5t144 -219t53 -269.5q0 -143 -53 -269t-144 -220t-214 -148.5t-265 -54.5h-647zM500 328h288q63 0 119 28.5t98 78.5t66.5 116.5t24.5 140.5t-24.5 140.5t-66.5 115.5t-97.5 78t-119.5 29h-288v-727z" />
<glyph unicode="E" horiz-adv-x="1259" d="M141 0v1382h1016v-327h-657v-203h616v-328h-616v-196h663v-328h-1022z" />
<glyph unicode="F" horiz-adv-x="1204" d="M141 0v1382h975v-327h-616v-273h575v-327h-575v-455h-359z" />
<glyph unicode="G" horiz-adv-x="1513" d="M68 698q0 160 56 290t156.5 224.5t238.5 145.5t304 51q190 0 342 -60.5t258 -172.5l-239 -226q-25 29 -66 51.5t-89 38t-99 23.5t-96 8q-96 0 -170 -31.5t-124.5 -84t-77 -120t-26.5 -137.5q0 -72 26.5 -141.5t79 -123.5t127 -88t171.5 -34q53 0 108.5 11.5t106.5 33.5 v121h-209v328h567v-629q-92 -96 -248.5 -149.5t-330.5 -53.5q-168 0 -309.5 53.5t-243 149.5t-157.5 229.5t-56 292.5z" />
<glyph unicode="H" horiz-adv-x="1587" d="M141 0v1382h359v-522h587v522h359v-1382h-359v532h-587v-532h-359z" />
<glyph unicode="I" horiz-adv-x="641" d="M141 0v1382h359v-1382h-359z" />
<glyph unicode="J" horiz-adv-x="1161" d="M0 207l203 227q70 -45 142.5 -80t143.5 -35q35 0 69 11.5t59.5 35t41 61.5t15.5 91v864h358v-890q0 -145 -38 -243.5t-100.5 -160t-146.5 -88.5t-176 -27q-74 0 -151.5 16.5t-153.5 46.5t-143.5 73t-122.5 98z" />
<glyph unicode="K" horiz-adv-x="1443" d="M141 0v1382h359v-530l471 530h463l-572 -634l617 -748h-463l-398 477l-118 -131v-346h-359z" />
<glyph unicode="L" horiz-adv-x="1169" d="M141 0v1382h359v-1054h628v-328h-987z" />
<glyph unicode="M" horiz-adv-x="1880" d="M141 0v1382h369l430 -766l430 766h369v-1382h-359v813l-364 -661h-152l-364 661v-813h-359z" />
<glyph unicode="N" horiz-adv-x="1589" d="M141 0v1382h359l590 -850v850h358v-1382h-358l-590 846v-846h-359z" />
<glyph unicode="O" horiz-adv-x="1607" d="M66 690q0 147 58 278.5t157.5 229.5t233.5 154.5t288 56.5t289 -56.5t234 -154.5t157.5 -229t58.5 -279q0 -150 -58.5 -279.5t-157.5 -227t-234 -154t-289 -56.5t-288 56.5t-233.5 154t-157.5 227.5t-58 279zM434 690q0 -78 30 -147.5t80 -120.5t116.5 -81t142.5 -30 t143.5 30t117.5 81t80 120.5t30 147.5t-30 147.5t-80 122t-117.5 82t-143.5 29.5t-142.5 -29.5t-116.5 -82t-80 -122t-30 -147.5z" />
<glyph unicode="P" horiz-adv-x="1400" d="M141 0v1382h746q111 0 196.5 -44t145 -115.5t91.5 -161.5t32 -184q0 -92 -31 -185.5t-90.5 -167t-146.5 -121t-197 -47.5h-387v-356h-359zM500 684h309q45 0 78 17.5t54.5 45t31.5 61.5t10 66q0 68 -43 124.5t-131 56.5h-309v-371z" />
<glyph unicode="Q" horiz-adv-x="1607" d="M66 690q0 147 58 278.5t157.5 229.5t233.5 154.5t288 56.5t289 -56.5t234 -154.5t157.5 -229t58.5 -279q0 -113 -33.5 -215t-94 -188t-144.5 -152.5t-185 -107.5l115 -27l277 -98v-359l-1035 520q-84 45 -153.5 111t-118.5 146.5t-76.5 174t-27.5 195.5zM434 690 q0 -78 30 -147.5t80 -120.5t116.5 -81t142.5 -30t143.5 30t117.5 81t80 120.5t30 147.5t-30 147.5t-80 122t-117.5 82t-143.5 29.5t-142.5 -29.5t-116.5 -82t-80 -122t-30 -147.5z" />
<glyph unicode="R" horiz-adv-x="1452" d="M141 0v1382h758q104 0 185 -39.5t137.5 -104t86 -147.5t29.5 -169q0 -111 -47 -222.5t-127 -189.5l258 -510h-385l-200 397h-336v-397h-359zM500 727h338q31 0 55.5 15.5t41.5 40t25.5 55t8.5 61.5q0 59 -32 107.5t-97 48.5h-340v-328z" />
<glyph unicode="S" horiz-adv-x="1294" d="M51 168l146 289q139 -72 267 -109t247 -37q55 0 94 22.5t39 65.5q0 47 -37 74t-129 49q-182 47 -296 105.5t-177.5 122t-86 128t-22.5 126.5q0 82 32 155.5t95.5 128.5t155.5 88t213 33q53 0 126 -8t153.5 -27.5t165.5 -52.5t165 -84l-133 -291q-53 27 -115.5 49.5 t-124 39t-120 25.5t-103.5 9q-53 0 -85 -17.5t-32 -52.5q0 -18 8.5 -35.5t29 -34t57.5 -32.5t94 -33q166 -49 271.5 -99t167 -106.5t84 -121t22.5 -140.5q0 -98 -38 -177t-107.5 -134t-166 -84t-213.5 -29q-70 0 -151.5 12.5t-166.5 36t-169 60.5t-160 86z" />
<glyph unicode="T" horiz-adv-x="1269" d="M39 1055v327h1192v-327h-416v-1055h-358v1055h-418z" />
<glyph unicode="U" horiz-adv-x="1511" d="M123 586v796h358v-764q0 -78 22.5 -136t61.5 -96t90.5 -56.5t110.5 -18.5q117 0 189.5 75t72.5 232v764h358v-796q0 -152 -44 -265.5t-125.5 -191.5t-195.5 -117t-255 -39t-259 39t-203 117t-133 191.5t-48 265.5z" />
<glyph unicode="V" horiz-adv-x="1437" d="M-4 1382h385l342 -958l336 958h383l-535 -1382h-377z" />
<glyph unicode="W" horiz-adv-x="2068" d="M16 1382h385l234 -878l227 878h342l236 -886l225 886h383l-406 -1382h-376l-232 913l-229 -913h-377z" />
<glyph unicode="X" horiz-adv-x="1478" d="M-16 0l542 692l-522 690h436l305 -403l295 403h435l-523 -686l543 -696h-436l-318 414l-313 -414h-444z" />
<glyph unicode="Y" horiz-adv-x="1460" d="M-14 1382h411l336 -618l344 618h396l-564 -925v-457h-358v457z" />
<glyph unicode="Z" horiz-adv-x="1271" d="M70 0v244l618 811h-588v327h1069v-241l-634 -813h667v-328h-1132z" />
<glyph unicode="[" horiz-adv-x="737" d="M121 -512v1894h538v-307h-180v-1280h180v-307h-538z" />
<glyph unicode="\" horiz-adv-x="790" d="M59 1382h277l393 -1382h-276z" />
<glyph unicode="]" horiz-adv-x="737" d="M78 -205h180v1280h-180v307h538v-1894h-538v307z" />
<glyph unicode="^" horiz-adv-x="1167" d="M68 637l325 745h377l330 -757h-352l-166 452l-158 -440h-356z" />
<glyph unicode="_" horiz-adv-x="1193" d="M0 -133h1194v-307h-1194v307z" />
<glyph unicode="`" horiz-adv-x="602" d="M41 1452h397l123 -319h-315z" />
<glyph unicode="a" d="M47 260q0 147 99.5 218t277.5 87l303 27v31q0 61 -63.5 91.5t-176.5 30.5q-76 0 -162.5 -12t-170.5 -35l-62 271q104 31 211 51t225 20q268 0 407.5 -102t139.5 -285v-653h-205l-65 109q-96 -76 -187.5 -106t-199.5 -30q-186 0 -278.5 76t-92.5 211zM412 285 q0 -37 23.5 -61.5t70.5 -24.5q63 0 115.5 23.5t105.5 64.5v127l-197 -31q-49 -8 -83.5 -26.5t-34.5 -71.5z" />
<glyph unicode="b" horiz-adv-x="1275" d="M111 0v1462h348v-309l-21 -201q59 41 124 64.5t136 23.5q106 0 200.5 -37.5t165.5 -106.5t113 -167t42 -217q0 -121 -42 -220t-115 -170t-170 -110t-208 -39q-100 0 -186 31t-156 84l-39 -88h-192zM434 512q0 -94 60.5 -157.5t150.5 -63.5q45 0 84 16.5t67.5 46t46 69.5 t17.5 87q0 45 -17.5 85t-46 67.5t-67.5 44t-84 16.5q-90 0 -150.5 -59.5t-60.5 -151.5z" />
<glyph unicode="c" horiz-adv-x="1089" d="M55 502q0 121 45 220t122 170t175.5 109.5t206.5 38.5q57 0 119.5 -12t121 -35.5t111 -57.5t91.5 -79l-250 -215q-37 35 -80 58.5t-113 23.5q-41 0 -74.5 -16.5t-60.5 -46t-41 -68.5t-14 -84q0 -94 57 -155.5t141 -61.5q53 0 95.5 19.5t95.5 58.5l250 -209 q-39 -45 -91.5 -80t-111.5 -58.5t-122.5 -36t-123.5 -12.5q-109 0 -207 38t-175 106.5t-122 166t-45 218.5z" />
<glyph unicode="d" horiz-adv-x="1277" d="M57 512q0 119 42 217t114 167t166 106.5t201 37.5q72 0 135 -23.5t121 -62.5l-19 199v309h348v-1462h-192l-41 88q-70 -53 -155 -84t-185 -31q-111 0 -208 39t-170 110t-115 170t-42 220zM416 512q0 -47 16.5 -87t46 -69.5t68.5 -47t84 -17.5q90 0 150.5 63.5t60.5 157.5 q0 92 -60.5 151.5t-150.5 59.5q-45 0 -84 -15.5t-68.5 -44t-46 -67.5t-16.5 -84z" />
<glyph unicode="e" d="M55 502q0 121 45 220t122 170t175.5 109.5t206.5 38.5q106 0 202.5 -38.5t170.5 -113.5t117 -182.5t43 -244.5h-717q18 -88 82.5 -129t156.5 -41q53 0 105.5 18.5t93.5 59.5l225 -199q-80 -96 -203.5 -146.5t-254.5 -50.5q-111 0 -214.5 37t-182 104.5t-126 166 t-47.5 221.5zM420 596l342 14q-43 154 -168 154q-78 0 -119 -51t-55 -117z" />
<glyph unicode="f" horiz-adv-x="708" d="M78 721v293h74v51q0 113 32.5 189.5t98 122.5t164 65.5t229.5 19.5l-35 -293q-45 0 -72.5 -8t-43 -21.5t-20.5 -33t-5 -41.5v-51h157v-84l-20 -209h-137v-721h-348v721h-74z" />
<glyph unicode="g" horiz-adv-x="1275" d="M57 504q0 119 42 218t115 170t170 109.5t208 38.5q100 0 185 -30.5t155 -83.5l41 88h192v-979q0 -242 -139 -380t-408 -138q-115 0 -244.5 21.5t-250.5 66.5l86 270q92 -29 187.5 -46t168.5 -17q129 0 190.5 56t61.5 167v10q-53 -33 -112.5 -52.5t-124.5 -19.5 q-106 0 -200.5 38t-166.5 106.5t-114 167t-42 219.5zM416 504q0 -94 64.5 -153.5t158.5 -59.5q43 0 80 16.5t64.5 44t43 66.5t15.5 86q0 45 -15.5 86t-43 69.5t-64.5 46t-80 17.5q-47 0 -88 -17.5t-70.5 -46t-47 -69.5t-17.5 -86z" />
<glyph unicode="h" horiz-adv-x="1271" d="M113 0v1462h348v-332l-17 -208q59 55 137 86.5t177 31.5q82 0 155.5 -24.5t131 -75.5t91 -132t33.5 -192v-616h-348v535q0 88 -47 127.5t-119 39.5q-102 0 -194 -77v-625h-348z" />
<glyph unicode="i" horiz-adv-x="573" d="M80 1346q0 43 16.5 79.5t45 64.5t66.5 44t83 16q41 0 79 -16t65.5 -44t44 -64.5t16.5 -79.5t-16.5 -82t-44 -68t-65.5 -45t-79 -16q-45 0 -83 16t-66.5 45t-45 68t-16.5 82zM113 0v1014h348v-1014h-348z" />
<glyph unicode="j" horiz-adv-x="573" d="M-61 -164q74 0 125 43q49 41 49 106v5v1024h348v-1028q0 -104 -35 -190.5t-101.5 -148t-164 -95t-221.5 -33.5v317zM80 1346q0 43 16.5 79.5t45 64.5t66.5 44t83 16q41 0 79 -16t65.5 -44t44 -64.5t16.5 -79.5t-16.5 -82t-44 -68t-65.5 -45t-79 -16q-45 0 -83 16 t-66.5 45t-45 68t-16.5 82z" />
<glyph unicode="k" horiz-adv-x="1234" d="M113 0v1462h348v-817l338 369h409l-409 -449l454 -565h-397l-272 332l-123 -135v-197h-348z" />
<glyph unicode="l" horiz-adv-x="573" d="M113 0v1462h348v-1462h-348z" />
<glyph unicode="m" horiz-adv-x="1978" d="M113 0v1014h227l55 -146q76 90 167 131t196 41q104 0 196.5 -41t147.5 -129q76 88 167 129t195 41q82 0 156 -24.5t131 -75.5t91 -132t34 -192v-616h-346v535q0 88 -47 127.5t-119 39.5q-102 0 -195 -77v-625h-348v535q0 88 -47 127.5t-119 39.5q-102 0 -194 -77v-625 h-348z" />
<glyph unicode="n" horiz-adv-x="1271" d="M113 0v1014h227l55 -146q76 90 167 131t196 41q82 0 155.5 -24.5t131 -75.5t91 -132t33.5 -192v-616h-348v535q0 88 -47 127.5t-119 39.5q-102 0 -194 -77v-625h-348z" />
<glyph unicode="o" horiz-adv-x="1253" d="M55 502q0 121 47.5 220t126 170t182 109.5t214.5 38.5q115 0 218 -38.5t182 -109.5t126 -170t47 -220t-47 -218.5t-126 -166t-182 -106.5t-218 -38q-111 0 -214.5 38t-182 106.5t-126 166t-47.5 218.5zM414 502q0 -92 59.5 -151.5t151.5 -59.5q45 0 84 15.5t68.5 44 t46 66.5t16.5 85q0 45 -16.5 86t-46 70.5t-68.5 47t-84 17.5q-90 0 -150.5 -63.5t-60.5 -157.5z" />
<glyph unicode="p" horiz-adv-x="1277" d="M113 -483v1497h192l43 -94q72 55 157 87.5t181 32.5q111 0 208 -38.5t170 -109.5t115 -170t42 -218q0 -121 -42 -219.5t-114 -167t-166 -106.5t-201 -38q-74 0 -138 18.5t-118 47.5l19 -176v-346h-348zM436 504q0 -47 16.5 -86t45 -66.5t66.5 -44t83 -16.5 q90 0 152.5 59.5t62.5 153.5q0 45 -17.5 86t-46 69.5t-67.5 46t-84 17.5t-83 -17.5t-66.5 -46t-45 -69.5t-16.5 -86z" />
<glyph unicode="q" horiz-adv-x="1275" d="M57 504q0 119 42 218t115 170t170 109.5t208 38.5q98 0 183 -32.5t155 -85.5l43 92h192v-1497h-348v346l17 176q-53 -29 -117 -47.5t-137 -18.5q-106 0 -200.5 38t-166.5 106.5t-114 167t-42 219.5zM416 504q0 -94 62.5 -153.5t152.5 -59.5q45 0 83 16.5t66.5 44t45 66.5 t16.5 86q0 45 -16.5 86t-45 69.5t-66.5 46t-83 17.5t-84 -17.5t-68.5 -46t-46 -69.5t-16.5 -86z" />
<glyph unicode="r" horiz-adv-x="804" d="M113 0v1014h249l84 -180q70 94 152 150t176 56v-335q-106 0 -182 -41t-131 -105v-559h-348z" />
<glyph unicode="s" horiz-adv-x="1105" d="M35 115l110 270q135 -66 244 -90.5t213 -24.5q35 0 50.5 10.5t15.5 22.5q0 27 -64 39q-154 33 -250 72t-151.5 83t-77 92t-23.5 99v18q0 64 24 120q28 64 86 112.5t145 75t200 26.5q49 0 113.5 -6t131 -18t129 -31.5t107.5 -48.5l-112 -264q-43 18 -94.5 30.5t-99.5 20.5 t-91 11t-72 3q-43 0 -72.5 -7t-29.5 -23t12.5 -24.5t46.5 -16.5q141 -31 238.5 -63t159 -73t90 -95t30.5 -128q0 -74 -32.5 -135t-93 -105t-147.5 -69t-198 -25q-47 0 -114.5 6.5t-142 21.5t-148.5 43t-133 71z" />
<glyph unicode="t" horiz-adv-x="796" d="M63 717v297h103v239l348 103v-342h199v-266l-31 -31h-168v-252q0 -39 16.5 -71t45 -55.5t68.5 -35.5t85 -12v-318q-135 0 -239.5 34t-177 95.5t-109.5 147.5t-37 190v277h-103z" />
<glyph unicode="u" horiz-adv-x="1267" d="M98 446v568h348v-510q0 -98 50.5 -145.5t128.5 -47.5q92 0 182 76v627h348v-1014h-227l-56 143q-78 -90 -173 -130t-189 -40q-80 0 -153.5 28t-131 85t-92.5 147.5t-35 212.5z" />
<glyph unicode="v" horiz-adv-x="1103" d="M-8 1014h381l180 -549l178 549h381l-453 -1014h-215z" />
<glyph unicode="w" horiz-adv-x="1740" d="M-6 1014h381l180 -547l178 547h275l180 -547l178 547h381l-432 -1014h-256l-189 623l-188 -623h-256z" />
<glyph unicode="x" horiz-adv-x="1169" d="M0 0l393 510l-377 504h402l166 -281l168 281h401l-379 -504l395 -510h-401l-180 270l-187 -270h-401z" />
<glyph unicode="y" horiz-adv-x="1138" d="M2 1014h381l190 -541l199 541h381l-385 -838q-135 -324 -302 -491.5t-392 -167.5v317q43 0 91 16.5t94 49t86 82t69 112.5z" />
<glyph unicode="z" horiz-adv-x="1067" d="M72 0v293l444 428h-410v293h867v-293l-447 -428h465v-293h-919z" />
<glyph unicode="{" horiz-adv-x="733" d="M61 426v287q49 0 83 29.5t32 76.5v307q0 76 39 138.5t103.5 106.5t149.5 67.5t177 23.5v-286q-49 0 -85 -34t-34 -85v-254q0 -68 -35.5 -125t-91.5 -105q55 -45 91 -99t36 -118v-274q-2 -51 34 -85t85 -34v-287q-92 0 -177 24t-149.5 68t-103.5 106.5t-39 137.5v307 q2 43 -28.5 73t-77.5 34h-9z" />
<glyph unicode="|" horiz-adv-x="593" d="M123 -512v1974h348v-1974h-348z" />
<glyph unicode="}" horiz-adv-x="733" d="M88 -37q49 0 85 34t34 85v274q0 63 36 117.5t89 99.5q-53 47 -89 104.5t-36 125.5v254q2 51 -34 85t-85 34v286q92 0 177 -23.5t149.5 -67.5t103.5 -106.5t39 -138.5v-307q-2 -45 28.5 -73.5t76.5 -32.5h10v-287q-49 0 -83 -29.5t-32 -77.5v-307q0 -76 -39 -138 t-103.5 -106t-149.5 -68t-177 -24v287z" />
<glyph unicode="~" horiz-adv-x="1034" d="M119 453q4 166 78.5 246.5t171.5 80.5q41 0 89 -11t100 -25.5t106.5 -25.5t103.5 -11q29 0 54.5 16t29.5 63h72q0 -162 -60.5 -251t-177.5 -89q-45 0 -97 11.5t-106.5 26t-110 25.5t-104.5 11q-29 0 -48 -17.5t-25 -49.5h-76z" />
<glyph unicode="&#xa1;" horiz-adv-x="571" d="M78 829q0 43 16.5 82t45 68t66.5 45t83 16q41 0 79 -16t65.5 -45t44 -68t16.5 -82t-16.5 -79.5t-44 -64.5t-65.5 -44t-79 -16q-45 0 -83 16t-66.5 44t-45 64.5t-16.5 79.5zM106 -164l64 684h231l64 -684v-207h-359v207z" />
<glyph unicode="&#xa2;" horiz-adv-x="1122" d="M63 502q0 94 28 175t77 145.5t115.5 112.5t144.5 75v309h332v-297q86 -20 162.5 -62t132.5 -104l-250 -215q-37 35 -88 58.5t-105 23.5q-80 0 -135 -58.5t-55 -156.5q0 -94 57.5 -155.5t141.5 -61.5q45 0 91 19.5t99 58.5l250 -209q-55 -66 -135 -108t-166 -60v-311h-332 v321q-78 27 -144.5 73t-115.5 109.5t-77 143.5t-28 174z" />
<glyph unicode="&#xa3;" horiz-adv-x="1366" d="M98 0v281l219 20l-28 176h-187v289l138 12l-17 109q-23 133 16.5 231.5t115 163t178 96t208.5 31.5q160 0 294 -60.5t239 -156.5l-174 -227q-35 23 -83 42t-99.5 33.5t-98.5 22.5t-78 8q-35 0 -66.5 -10t-56 -29.5t-37 -50.5t-6.5 -72l21 -123h207v-290l-158 -7l29 -182 h278l19 314h284v-621h-1157z" />
<glyph unicode="&#xa4;" horiz-adv-x="1443" d="M84 297l129 129q-70 115 -70 260q0 76 18.5 143.5t53.5 124.5l-131 133l244 244l151 -153q113 47 234 47q129 0 248 -51l157 157l244 -244l-143 -143q33 -55 50 -120.5t17 -137.5t-17.5 -134.5t-45.5 -115.5l139 -139l-244 -244l-155 154q-115 -49 -250 -49 q-61 0 -122 11t-114 34l-149 -150zM502 686q0 -92 60.5 -151.5t150.5 -59.5q45 0 84 15.5t68.5 44t46 66.5t16.5 85t-16.5 87t-46 69.5t-68.5 47t-84 17.5q-90 0 -150.5 -63.5t-60.5 -157.5z" />
<glyph unicode="&#xa5;" horiz-adv-x="1490" d="M72 1382h366l314 -604l309 604h375l-330 -579h168v-291h-332l-8 -14v-80h340v-291h-340v-127h-359v127h-399v291h399v80l-8 14h-391v291h225z" />
<glyph unicode="&#xa6;" horiz-adv-x="612" d="M127 0v643h358v-643h-358zM127 776v606h358v-606h-358z" />
<glyph unicode="&#xa7;" horiz-adv-x="1296" d="M74 512q0 92 42 172t124 137q-27 47 -36 94.5t-9 88.5q0 82 29.5 155.5t87 128.5t141.5 88t194 33q49 0 115.5 -7t137.5 -24.5t142.5 -45t133.5 -68.5l-121 -314q-84 53 -185.5 86t-197.5 33q-37 0 -60.5 -15.5t-23.5 -43.5q0 -18 6 -29.5t22.5 -20t44 -18.5t72.5 -24 q147 -45 242.5 -102.5t152 -121t78 -129t21.5 -127.5q0 -96 -43 -175t-117 -134q23 -45 32 -90t9 -92q0 -92 -33 -169t-93 -133.5t-145 -87t-188 -30.5q-127 0 -277.5 46t-283.5 126l154 301q106 -53 197 -93t184 -40q47 0 79.5 17.5t32.5 54.5q0 29 -27.5 47t-97.5 34 q-168 43 -272.5 104.5t-162.5 128t-79.5 134.5t-21.5 125zM467 498q0 -25 11 -41.5t42 -30.5t83 -27.5t134 -31.5l11 -5q45 10 72.5 31t27.5 49q0 43 -43 64.5t-143 46.5l-80 25q-53 -4 -84 -25t-31 -55z" />
<glyph unicode="&#xa8;" horiz-adv-x="1003" d="M45 1343q0 43 16.5 80t45 65t66.5 44t83 16q41 0 79 -16t65.5 -44t44 -65t16.5 -80t-16.5 -81.5t-44 -67.5t-65.5 -45t-79 -16q-45 0 -83 16t-66.5 45t-45 67.5t-16.5 81.5zM543 1343q0 43 16 80t45 65t67 44t83 16q41 0 78.5 -16t65.5 -44t44 -65t16 -80t-16 -81.5 t-44 -67.5t-65.5 -45t-78.5 -16q-45 0 -83 16t-67 45t-45 67.5t-16 81.5z" />
<glyph unicode="&#xa9;" horiz-adv-x="1591" d="M78 690q0 147 56 278.5t153.5 229.5t228.5 154.5t279 56.5q150 0 280.5 -56.5t228 -154.5t153.5 -229t56 -279q0 -150 -56 -279.5t-153.5 -227t-228 -154t-280.5 -56.5q-147 0 -278.5 56.5t-229 154t-153.5 227.5t-56 279zM154 690q0 -133 51 -250.5t138 -206t204 -139.5 t248 -51q133 0 249.5 51t204.5 139.5t138.5 206t50.5 250.5t-51.5 251t-138.5 207t-204.5 140t-248.5 51t-248 -51t-204 -140t-138 -207t-51 -251zM350 690q0 94 37 178t100.5 146.5t149.5 99.5t184 37q104 0 193.5 -40t154.5 -110l-161 -153q-29 41 -81.5 63.5t-105.5 22.5 q-49 0 -91 -19.5t-74.5 -52.5t-51 -77t-18.5 -95t18.5 -95t51 -77t74.5 -51t91 -18q51 0 102.5 20t82.5 61l157 -157q-66 -66 -152.5 -104t-189.5 -38q-98 0 -184 36t-149.5 98.5t-100.5 145.5t-37 179z" />
<glyph unicode="&#xaa;" horiz-adv-x="763" d="M80 975q0 86 55 124t154 46l129 10v23q0 18 -24.5 27t-67.5 9q-53 0 -96.5 -7t-90.5 -17l-35 180q59 16 112.5 27.5t131.5 11.5q150 0 227.5 -57.5t77.5 -157.5v-363h-151l-33 35q-43 -29 -86 -40t-96 -11q-104 0 -155.5 46t-51.5 114zM326 989q0 -16 13 -26.5t38 -10.5 t41 9v81l-27 -6q-27 -4 -46 -12t-19 -35z" />
<glyph unicode="&#xab;" horiz-adv-x="1245" d="M84 301v418l481 268v-352l-264 -123l264 -119v-356zM657 301v418l482 268v-352l-265 -123l265 -119v-356z" />
<glyph unicode="&#xac;" horiz-adv-x="1345" d="M98 530v308h1116v-682h-348v374h-768z" />
<glyph unicode="&#xad;" horiz-adv-x="1067" d="M111 338v328h845v-328h-845z" />
<glyph unicode="&#xae;" horiz-adv-x="1591" d="M78 690q0 147 56 278.5t153.5 229.5t228.5 154.5t279 56.5q150 0 280.5 -56.5t228 -154.5t153.5 -229t56 -279q0 -150 -56 -279.5t-153.5 -227t-228 -154t-280.5 -56.5q-147 0 -278.5 56.5t-229 154t-153.5 227.5t-56 279zM154 690q0 -133 51 -250.5t138 -206t204 -139.5 t248 -51q133 0 249.5 51t204.5 139.5t138.5 206t50.5 250.5t-51.5 251t-138.5 207t-204.5 140t-248.5 51t-248 -51t-204 -140t-138 -207t-51 -251zM436 270v840h500q53 0 96 -23.5t73 -61.5t45 -86t15 -97q0 -37 -8 -76t-23.5 -76t-39 -68.5t-54.5 -52.5l152 -299h-236 l-135 267h-168v-267h-217zM653 723h209q39 0 59.5 34t20.5 72q0 35 -20.5 65t-59.5 30h-209v-201z" />
<glyph unicode="&#xaf;" horiz-adv-x="780" d="M61 1133v249h658v-249h-658z" />
<glyph unicode="&#xb0;" horiz-adv-x="792" d="M68 1090q0 70 24.5 129t67.5 100t103.5 64.5t131.5 23.5q74 0 134.5 -23.5t103.5 -65.5t67.5 -100.5t24.5 -127.5q0 -68 -23.5 -127.5t-66.5 -102.5t-104.5 -67.5t-135.5 -24.5q-78 0 -138 24.5t-102 67.5t-64.5 102.5t-22.5 127.5zM285 1085q0 -53 31.5 -79.5 t78.5 -26.5t80 29.5t33 76.5q0 53 -33 81t-80 28q-45 0 -77.5 -30.5t-32.5 -78.5z" />
<glyph unicode="&#xb1;" horiz-adv-x="956" d="M106 0v246h744v-246h-744zM106 518v297h213v199h295v-199h236v-297h-236v-207h-295v207h-213z" />
<glyph unicode="&#xb2;" horiz-adv-x="704" d="M20 1276q82 72 178.5 102.5t178.5 30.5q125 0 200.5 -61.5t75.5 -157.5q0 -74 -42 -120t-94 -75.5t-99 -50t-60 -45.5h285v-203h-563v152q0 51 22.5 91t56.5 70.5t73.5 53t73.5 41t56.5 34t22.5 31.5q0 31 -55 31q-45 0 -97.5 -15.5t-97.5 -49.5z" />
<glyph unicode="&#xb3;" horiz-adv-x="710" d="M23 784l106 148q55 -29 108.5 -38t90.5 -9t52 11t15 28q0 35 -106 34v166q68 0 87 15.5t19 31.5q0 14 -18.5 21.5t-46.5 7.5q-55 0 -98.5 -8t-92.5 -18l-90 167q66 29 150 48.5t170 19.5q57 0 110 -10t93 -33t63.5 -56.5t23.5 -82.5q0 -55 -29.5 -100.5t-80.5 -79.5 q53 -29 81.5 -71t28.5 -91q0 -37 -18 -75t-55 -67.5t-93.5 -48t-134.5 -18.5t-168 23.5t-167 84.5z" />
<glyph unicode="&#xb4;" horiz-adv-x="602" d="M41 1130l123 320h397l-205 -320h-315z" />
<glyph unicode="&#xb5;" horiz-adv-x="1282" d="M-61 -164q74 0 125 43t49 111v1024h348v-520q4 -92 53 -136.5t125 -44.5q90 0 182 74v627h348v-1014h-227l-55 143q-78 -90 -173.5 -130t-189.5 -40q-16 0 -31.5 1t-31.5 3q-2 -102 -37 -187t-101.5 -145.5t-164 -93t-219.5 -32.5v317z" />
<glyph unicode="&#xb6;" horiz-adv-x="1767" d="M57 864q0 90 37 182.5t106.5 167t170 121.5t227.5 47h1071v-307h-108v-1556h-349v1556h-133v-1556h-348v821h-133q-129 0 -230.5 48t-170 124t-104.5 169t-36 183z" />
<glyph unicode="&#xb7;" horiz-adv-x="587" d="M86 608q0 43 16.5 80t45 64.5t66.5 44t83 16.5q43 0 80 -16.5t64.5 -44t44 -64.5t16.5 -80t-16.5 -82t-44 -67.5t-65.5 -45t-79 -16.5q-43 0 -81 16.5t-67.5 45t-46 67.5t-16.5 82z" />
<glyph unicode="&#xb8;" horiz-adv-x="499" d="M70 -342l34 82q23 -20 46.5 -24.5t50.5 -4.5q29 0 46 13.5t17 42.5t-34.5 42t-94.5 13l55 182h123l-30 -104q100 -6 140 -45t40 -88q0 -70 -65.5 -120t-170.5 -50q-66 0 -103.5 19t-53.5 42z" />
<glyph unicode="&#xb9;" horiz-adv-x="589" d="M12 1280l191 102h254v-483h88v-203h-430v203h88v250l-84 -43z" />
<glyph unicode="&#xba;" horiz-adv-x="745" d="M70 1116q0 61 22.5 114.5t62.5 93.5t95 62.5t123 22.5t124 -22.5t96 -62.5t62.5 -93t22.5 -115q0 -63 -22.5 -117.5t-62.5 -94.5t-96.5 -62.5t-123.5 -22.5q-74 0 -130.5 22.5t-95 62.5t-58 94.5t-19.5 117.5zM270 1112q0 -49 30 -73.5t73 -24.5t73.5 26.5t30.5 71.5 q0 47 -30.5 73.5t-73.5 26.5q-41 0 -72 -27.5t-31 -72.5z" />
<glyph unicode="&#xbb;" horiz-adv-x="1245" d="M106 37v356l265 119l-265 123v352l482 -268v-418zM680 37v356l264 119l-264 123v352l481 -268v-418z" />
<glyph unicode="&#xbc;" horiz-adv-x="1630" d="M12 1280l191 102h254v-483h88v-203h-430v203h88v250l-84 -43zM459 0l393 1382h276l-393 -1382h-276zM940 119v200l326 367h270v-367h43v-200h-43v-119h-252v119h-344zM1186 319h98v113z" />
<glyph unicode="&#xbd;" horiz-adv-x="1681" d="M12 1280l191 102h254v-483h88v-203h-430v203h88v250l-84 -43zM459 0l393 1382h276l-393 -1382h-276zM997 580q82 72 178.5 102.5t178.5 30.5q125 0 200.5 -61.5t75.5 -157.5q0 -74 -42 -120t-94 -76t-99 -50.5t-60 -44.5h285v-203h-563v152q0 51 22.5 91t56 70.5t73.5 53 t74 41t56.5 34t22.5 31.5q0 31 -55 31q-45 0 -97.5 -15.5t-97.5 -50.5z" />
<glyph unicode="&#xbe;" horiz-adv-x="1691" d="M23 784l106 148q55 -29 108.5 -38t90.5 -9t52 11t15 28q0 35 -106 34v166q68 0 87 15.5t19 31.5q0 14 -18.5 21.5t-46.5 7.5q-55 0 -98.5 -8t-92.5 -18l-90 167q66 29 150 48.5t170 19.5q57 0 110 -10t93 -33t63.5 -56.5t23.5 -82.5q0 -55 -29.5 -100.5t-80.5 -79.5 q53 -29 81.5 -71t28.5 -91q0 -37 -18 -75t-55 -67.5t-93.5 -48t-134.5 -18.5t-168 23.5t-167 84.5zM520 0l393 1382h277l-393 -1382h-277zM1001 119v200l326 367h270v-367h43v-200h-43v-119h-251v119h-345zM1247 319h99v113z" />
<glyph unicode="&#xbf;" horiz-adv-x="1175" d="M63 27q0 70 25 136t75 120.5t128 94.5t186 58v146h307v-398q-193 0 -297 -41t-104 -102q0 -47 46 -74.5t149 -27.5q199 0 380 110l168 -233q-115 -100 -261 -142.5t-287 -42.5q-133 0 -229.5 32t-160 85t-94.5 126t-31 153zM442 848q0 39 15.5 74.5t41 61.5t59.5 41 t71 15q82 0 137 -56t55 -136q0 -78 -55 -132t-137 -54q-37 0 -71 14t-59.5 39.5t-41 59.5t-15.5 73z" />
<glyph unicode="&#xc0;" horiz-adv-x="1470" d="M-8 0l555 1382h377l555 -1382h-375l-86 233h-567l-84 -233h-375zM369 1815h397l123 -320h-316zM571 561h328l-164 447z" />
<glyph unicode="&#xc1;" horiz-adv-x="1470" d="M-8 0l555 1382h377l555 -1382h-375l-86 233h-567l-84 -233h-375zM571 561h328l-164 447zM584 1495l123 320h397l-205 -320h-315z" />
<glyph unicode="&#xc2;" horiz-adv-x="1470" d="M-8 0l555 1382h377l555 -1382h-375l-86 233h-567l-84 -233h-375zM289 1495l205 320h483l205 -320h-316l-133 203l-131 -203h-313zM571 561h328l-164 447z" />
<glyph unicode="&#xc3;" horiz-adv-x="1470" d="M-8 0l555 1382h377l555 -1382h-375l-86 233h-567l-84 -233h-375zM338 1520q4 156 69.5 231.5t159.5 75.5q49 0 95.5 -11.5t90.5 -25.5t89 -25.5t90 -11.5q29 0 51.5 12.5t26.5 46.5h112q0 -154 -59 -236.5t-158 -82.5q-49 0 -96 11.5t-95 25.5t-94.5 25.5t-91.5 11.5 q-29 0 -49 -12.5t-24 -34.5h-117zM571 561h328l-164 447z" />
<glyph unicode="&#xc4;" horiz-adv-x="1470" d="M-8 0l555 1382h377l555 -1382h-375l-86 233h-567l-84 -233h-375zM279 1704q0 43 16 80t45 64.5t66.5 44t82.5 16.5q41 0 79 -16.5t66 -44t44 -64.5t16 -80t-16 -82t-44 -67.5t-66 -45t-79 -16.5q-45 0 -82.5 16.5t-66.5 45t-45 67.5t-16 82zM571 561h328l-164 447z M776 1704q0 43 16.5 80t45 64.5t66.5 44t83 16.5q41 0 79 -16.5t65.5 -44t44 -64.5t16.5 -80t-16.5 -82t-44 -67.5t-65.5 -45t-79 -16.5q-45 0 -83 16.5t-66.5 45t-45 67.5t-16.5 82z" />
<glyph unicode="&#xc5;" horiz-adv-x="1470" d="M-8 0l545 1358q-91 74 -91 211q0 57 21.5 105t59.5 84t92.5 56.5t119.5 20.5q63 0 115.5 -20.5t90.5 -56.5t59.5 -84t21.5 -105q0 -66 -24.5 -119t-69.5 -90l547 -1360h-375l-86 233h-567l-84 -233h-375zM571 561h328l-164 447zM639 1567q0 -51 29.5 -76t72.5 -25 q37 0 67 27t30 74q0 45 -30 69.5t-67 24.5q-43 0 -72.5 -25.5t-29.5 -68.5z" />
<glyph unicode="&#xc6;" horiz-adv-x="2048" d="M-14 0l655 1382h1305v-327h-658v-201h617v-328h-617v-198h664v-328h-1022v274h-451l-129 -274h-364zM633 602h297v453h-86z" />
<glyph unicode="&#xc7;" horiz-adv-x="1421" d="M70 684q0 182 66.5 318.5t171 226.5t233.5 135t254 45q197 0 340 -62.5t258 -170.5l-254 -240q-63 63 -153.5 99t-190.5 36q-68 0 -131.5 -27.5t-113.5 -79t-81 -122t-31 -158.5q0 -86 29 -155.5t80 -118t119.5 -74t148.5 -25.5q92 0 178 34t140 99l249 -249 q-98 -102 -244.5 -162t-322.5 -60h-4l-20 -73q100 -6 140 -45t40 -88q0 -70 -65.5 -120t-170.5 -50q-66 0 -103.5 19t-53.5 42l34 82q23 -20 46.5 -24.5t50.5 -4.5q29 0 46 13.5t17 42.5t-35 42t-94 13l47 160q-131 18 -244.5 73.5t-196.5 144.5t-131 210.5t-48 273.5z" />
<glyph unicode="&#xc8;" horiz-adv-x="1259" d="M141 0v1382h1016v-327h-657v-203h616v-328h-616v-196h663v-328h-1022zM326 1815h397l123 -320h-316z" />
<glyph unicode="&#xc9;" horiz-adv-x="1259" d="M141 0v1382h1016v-327h-657v-203h616v-328h-616v-196h663v-328h-1022zM481 1495l123 320h397l-204 -320h-316z" />
<glyph unicode="&#xca;" horiz-adv-x="1259" d="M141 0v1382h1016v-327h-657v-203h616v-328h-616v-196h663v-328h-1022zM207 1495l205 320h483l205 -320h-316l-133 203l-131 -203h-313z" />
<glyph unicode="&#xcb;" horiz-adv-x="1259" d="M141 0v1382h1016v-327h-657v-203h616v-328h-616v-196h663v-328h-1022zM201 1704q0 43 16 80t45 64.5t67 44t83 16.5q41 0 78.5 -16.5t65.5 -44t44 -64.5t16 -80t-16 -82t-44 -67.5t-65.5 -45t-78.5 -16.5q-45 0 -83 16.5t-67 45t-45 67.5t-16 82zM698 1704q0 43 16.5 80 t45 64.5t66.5 44t83 16.5q41 0 79 -16.5t65.5 -44t44 -64.5t16.5 -80t-16.5 -82t-44 -67.5t-65.5 -45t-79 -16.5q-45 0 -83 16.5t-66.5 45t-45 67.5t-16.5 82z" />
<glyph unicode="&#xcc;" horiz-adv-x="641" d="M-41 1815h397l123 -320h-315zM141 0v1382h359v-1382h-359z" />
<glyph unicode="&#xcd;" horiz-adv-x="641" d="M141 0v1382h359v-1382h-359zM168 1495l123 320h397l-205 -320h-315z" />
<glyph unicode="&#xce;" horiz-adv-x="641" d="M-125 1495l205 320h483l205 -320h-315l-134 203l-131 -203h-313zM141 0v1382h359v-1382h-359z" />
<glyph unicode="&#xcf;" horiz-adv-x="641" d="M-135 1704q0 43 16.5 80t45 64.5t66.5 44t83 16.5q41 0 79 -16.5t65.5 -44t44 -64.5t16.5 -80t-16.5 -82t-44 -67.5t-65.5 -45t-79 -16.5q-45 0 -83 16.5t-66.5 45t-45 67.5t-16.5 82zM141 0v1382h359v-1382h-359zM362 1704q0 43 16.5 80t45.5 64.5t66.5 44t82.5 16.5 q41 0 79 -16.5t65.5 -44t44 -64.5t16.5 -80t-16.5 -82t-44 -67.5t-65.5 -45t-79 -16.5q-45 0 -82.5 16.5t-66.5 45t-45.5 67.5t-16.5 82z" />
<glyph unicode="&#xd0;" horiz-adv-x="1536" d="M63 539v327h78v516h652q141 0 264 -54t214 -147.5t144 -219t53 -269.5q0 -143 -53 -269t-144 -220t-214 -148.5t-264 -54.5h-652v539h-78zM500 328h293q63 0 118.5 28.5t97.5 78.5t66.5 116.5t24.5 140.5t-24.5 140.5t-66.5 115.5t-97.5 78t-118.5 29h-293v-189h266v-327 h-266v-211z" />
<glyph unicode="&#xd1;" horiz-adv-x="1589" d="M141 0v1382h359l590 -850v850h358v-1382h-358l-590 846v-846h-359zM403 1520q4 156 70 231.5t160 75.5q49 0 95 -11.5t90 -25.5t89 -25.5t90 -11.5q29 0 51.5 12.5t26.5 46.5h113q0 -154 -59.5 -236.5t-157.5 -82.5q-49 0 -96.5 11.5t-95.5 25.5t-94 25.5t-91 11.5 q-29 0 -49.5 -12.5t-24.5 -34.5h-117z" />
<glyph unicode="&#xd2;" horiz-adv-x="1607" d="M66 690q0 147 58 278.5t157.5 229.5t233.5 154.5t288 56.5t289 -56.5t234 -154.5t157.5 -229t58.5 -279q0 -150 -58.5 -279.5t-157.5 -227t-234 -154t-289 -56.5t-288 56.5t-233.5 154t-157.5 227.5t-58 279zM434 690q0 -78 30 -147.5t80 -120.5t116.5 -81t142.5 -30 t143.5 30t117.5 81t80 120.5t30 147.5t-30 147.5t-80 122t-117.5 82t-143.5 29.5t-142.5 -29.5t-116.5 -82t-80 -122t-30 -147.5zM436 1815h398l122 -320h-315z" />
<glyph unicode="&#xd3;" horiz-adv-x="1607" d="M66 690q0 147 58 278.5t157.5 229.5t233.5 154.5t288 56.5t289 -56.5t234 -154.5t157.5 -229t58.5 -279q0 -150 -58.5 -279.5t-157.5 -227t-234 -154t-289 -56.5t-288 56.5t-233.5 154t-157.5 227.5t-58 279zM434 690q0 -78 30 -147.5t80 -120.5t116.5 -81t142.5 -30 t143.5 30t117.5 81t80 120.5t30 147.5t-30 147.5t-80 122t-117.5 82t-143.5 29.5t-142.5 -29.5t-116.5 -82t-80 -122t-30 -147.5zM618 1493l123 319h398l-205 -319h-316z" />
<glyph unicode="&#xd4;" horiz-adv-x="1607" d="M66 690q0 147 58 278.5t157.5 229.5t233.5 154.5t288 56.5t289 -56.5t234 -154.5t157.5 -229t58.5 -279q0 -150 -58.5 -279.5t-157.5 -227t-234 -154t-289 -56.5t-288 56.5t-233.5 154t-157.5 227.5t-58 279zM356 1495l205 320h483l205 -320h-315l-133 203l-131 -203 h-314zM434 690q0 -78 30 -147.5t80 -120.5t116.5 -81t142.5 -30t143.5 30t117.5 81t80 120.5t30 147.5t-30 147.5t-80 122t-117.5 82t-143.5 29.5t-142.5 -29.5t-116.5 -82t-80 -122t-30 -147.5z" />
<glyph unicode="&#xd5;" horiz-adv-x="1607" d="M66 690q0 147 58 278.5t157.5 229.5t233.5 154.5t288 56.5t289 -56.5t234 -154.5t157.5 -229t58.5 -279q0 -150 -58.5 -279.5t-157.5 -227t-234 -154t-289 -56.5t-288 56.5t-233.5 154t-157.5 227.5t-58 279zM412 1520q4 156 69.5 231.5t159.5 75.5q49 0 95 -11.5 t90 -25.5t89.5 -25.5t90.5 -11.5q29 0 51 12.5t26 46.5h113q0 -154 -59.5 -236.5t-157.5 -82.5q-49 0 -96 11.5t-95.5 25.5t-94.5 25.5t-91 11.5q-29 0 -49.5 -12.5t-24.5 -34.5h-116zM434 690q0 -78 30 -147.5t80 -120.5t116.5 -81t142.5 -30t143.5 30t117.5 81t80 120.5 t30 147.5t-30 147.5t-80 122t-117.5 82t-143.5 29.5t-142.5 -29.5t-116.5 -82t-80 -122t-30 -147.5z" />
<glyph unicode="&#xd6;" horiz-adv-x="1607" d="M66 690q0 147 58 278.5t157.5 229.5t233.5 154.5t288 56.5t289 -56.5t234 -154.5t157.5 -229t58.5 -279q0 -150 -58.5 -279.5t-157.5 -227t-234 -154t-289 -56.5t-288 56.5t-233.5 154t-157.5 227.5t-58 279zM346 1704q0 43 16.5 80t45 64.5t66.5 44t83 16.5 q41 0 79 -16.5t65.5 -44t44 -64.5t16.5 -80t-16.5 -82t-44 -67.5t-65.5 -45t-79 -16.5q-45 0 -83 16.5t-66.5 45t-45 67.5t-16.5 82zM434 690q0 -78 30 -147.5t80 -120.5t116.5 -81t142.5 -30t143.5 30t117.5 81t80 120.5t30 147.5t-30 147.5t-80 122t-117.5 82t-143.5 29.5 t-142.5 -29.5t-116.5 -82t-80 -122t-30 -147.5zM844 1704q0 43 16.5 80t45 64.5t66.5 44t83 16.5q41 0 78.5 -16.5t65.5 -44t44.5 -64.5t16.5 -80t-16.5 -82t-44.5 -67.5t-65.5 -45t-78.5 -16.5q-45 0 -83 16.5t-66.5 45t-45 67.5t-16.5 82z" />
<glyph unicode="&#xd7;" horiz-adv-x="983" d="M84 307l190 191l-190 190l217 217l191 -190l190 190l219 -217l-192 -192l190 -189l-217 -217l-190 189l-189 -189z" />
<glyph unicode="&#xd8;" horiz-adv-x="1607" d="M66 690q0 147 58 278.5t157.5 229.5t233.5 154.5t288 56.5q98 0 186 -23.5t168 -64.5l162 229h199l-228 -321q117 -100 184.5 -239.5t67.5 -299.5q0 -150 -58.5 -279.5t-157.5 -227t-234 -154t-289 -56.5q-92 0 -178 20.5t-164 59.5l-154 -217h-198l217 307 q-121 98 -190.5 239.5t-69.5 307.5zM434 690q0 -74 25.5 -139.5t70.5 -116.5l426 602q-74 35 -153 35q-76 0 -142.5 -29.5t-116.5 -82t-80 -122t-30 -147.5zM664 340q67 -29 139 -29q76 0 143.5 30t117.5 81t80 120.5t30 147.5q0 70 -25 133.5t-66 112.5z" />
<glyph unicode="&#xd9;" horiz-adv-x="1511" d="M123 586v796h358v-764q0 -78 22.5 -136t61.5 -96t90.5 -56.5t110.5 -18.5q117 0 189.5 75t72.5 232v764h358v-796q0 -152 -44 -265.5t-125.5 -191.5t-195.5 -117t-255 -39t-259 39t-203 117t-133 191.5t-48 265.5zM424 1815h397l123 -320h-315z" />
<glyph unicode="&#xda;" horiz-adv-x="1511" d="M123 586v796h358v-764q0 -78 22.5 -136t61.5 -96t90.5 -56.5t110.5 -18.5q117 0 189.5 75t72.5 232v764h358v-796q0 -152 -44 -265.5t-125.5 -191.5t-195.5 -117t-255 -39t-259 39t-203 117t-133 191.5t-48 265.5zM584 1495l123 320h397l-205 -320h-315z" />
<glyph unicode="&#xdb;" horiz-adv-x="1511" d="M123 586v796h358v-764q0 -78 22.5 -136t61.5 -96t90.5 -56.5t110.5 -18.5q117 0 189.5 75t72.5 232v764h358v-796q0 -152 -44 -265.5t-125.5 -191.5t-195.5 -117t-255 -39t-259 39t-203 117t-133 191.5t-48 265.5zM307 1495l205 320h483l205 -320h-315l-133 203 l-131 -203h-314z" />
<glyph unicode="&#xdc;" horiz-adv-x="1511" d="M123 586v796h358v-764q0 -78 22.5 -136t61.5 -96t90.5 -56.5t110.5 -18.5q117 0 189.5 75t72.5 232v764h358v-796q0 -152 -44 -265.5t-125.5 -191.5t-195.5 -117t-255 -39t-259 39t-203 117t-133 191.5t-48 265.5zM297 1704q0 43 16.5 80t45 64.5t66.5 44t83 16.5 q41 0 79 -16.5t65.5 -44t44 -64.5t16.5 -80t-16.5 -82t-44 -67.5t-65.5 -45t-79 -16.5q-45 0 -83 16.5t-66.5 45t-45 67.5t-16.5 82zM795 1704q0 43 16 80t45 64.5t67 44t83 16.5q41 0 78.5 -16.5t65.5 -44t44 -64.5t16 -80t-16 -82t-44 -67.5t-65.5 -45t-78.5 -16.5 q-45 0 -83 16.5t-67 45t-45 67.5t-16 82z" />
<glyph unicode="&#xdd;" horiz-adv-x="1460" d="M-14 1382h411l336 -618l344 618h396l-564 -925v-457h-358v457zM571 1495l123 320h398l-205 -320h-316z" />
<glyph unicode="&#xde;" horiz-adv-x="1353" d="M141 0v1382h359v-219h374q98 0 179.5 -40t138.5 -106.5t88 -149.5t31 -169q0 -84 -31 -170t-87 -154.5t-137 -111.5t-182 -43h-374v-219h-359zM500 547h288q39 0 69 14t48.5 35.5t27.5 49.5t9 52q0 53 -38 95.5t-116 42.5h-288v-289z" />
<glyph unicode="&#xdf;" horiz-adv-x="1353" d="M111 0v930q0 119 46 209t123.5 149.5t183 90t226.5 30.5q113 0 212 -23.5t174 -70.5t118 -118t43 -163q0 -119 -64.5 -198.5t-171.5 -120.5q135 -43 216 -130t81 -223q0 -98 -43 -170.5t-117.5 -120.5t-174 -73t-211.5 -25q-43 0 -85 5.5t-83 15.5v317q47 -12 90 -16 t78 -4q80 0 136 29.5t56 89.5q0 31 -21.5 53t-58.5 38.5t-87 25t-107 8.5h-25v313h25q88 0 150.5 29.5t62.5 99.5q0 27 -17.5 47t-45 35.5t-62.5 24t-72 8.5q-98 0 -162.5 -55.5t-64.5 -164.5v-872h-348z" />
<glyph unicode="&#xe0;" d="M47 260q0 147 99.5 218t277.5 87l303 27v31q0 61 -63.5 91.5t-176.5 30.5q-76 0 -162.5 -12t-170.5 -35l-62 271q104 31 211 51t225 20q268 0 407.5 -102t139.5 -285v-653h-205l-65 109q-96 -76 -187.5 -106t-199.5 -30q-186 0 -278.5 76t-92.5 211zM219 1454h397 l123 -319h-315zM412 285q0 -37 23.5 -61.5t70.5 -24.5q63 0 115.5 23.5t105.5 64.5v127l-197 -31q-49 -8 -83.5 -26.5t-34.5 -71.5z" />
<glyph unicode="&#xe1;" d="M47 260q0 147 99.5 218t277.5 87l303 27v31q0 61 -63.5 91.5t-176.5 30.5q-76 0 -162.5 -12t-170.5 -35l-62 271q104 31 211 51t225 20q268 0 407.5 -102t139.5 -285v-653h-205l-65 109q-96 -76 -187.5 -106t-199.5 -30q-186 0 -278.5 76t-92.5 211zM393 1130l123 320 h397l-204 -320h-316zM412 285q0 -37 23.5 -61.5t70.5 -24.5q63 0 115.5 23.5t105.5 64.5v127l-197 -31q-49 -8 -83.5 -26.5t-34.5 -71.5z" />
<glyph unicode="&#xe2;" d="M47 260q0 147 99.5 218t277.5 87l303 27v31q0 61 -63.5 91.5t-176.5 30.5q-76 0 -162.5 -12t-170.5 -35l-62 271q104 31 211 51t225 20q268 0 407.5 -102t139.5 -285v-653h-205l-65 109q-96 -76 -187.5 -106t-199.5 -30q-186 0 -278.5 76t-92.5 211zM141 1130l185 320 h524l184 -320h-315l-133 203l-131 -203h-314zM412 285q0 -37 23.5 -61.5t70.5 -24.5q63 0 115.5 23.5t105.5 64.5v127l-197 -31q-49 -8 -83.5 -26.5t-34.5 -71.5z" />
<glyph unicode="&#xe3;" d="M47 260q0 147 99.5 218t277.5 87l303 27v31q0 61 -63.5 91.5t-176.5 30.5q-76 0 -162.5 -12t-170.5 -35l-62 271q104 31 211 51t225 20q268 0 407.5 -102t139.5 -285v-653h-205l-65 109q-96 -76 -187.5 -106t-199.5 -30q-186 0 -278.5 76t-92.5 211zM205 1159 q4 156 72.5 231.5t156.5 75.5q37 0 82 -11t92 -25.5t96.5 -25.5t94.5 -11q29 0 51 12t27 47h112q0 -154 -55 -236.5t-162 -82.5q-43 0 -94 11t-102.5 25.5t-99.5 25.5t-87 11q-57 0 -67 -47h-117zM412 285q0 -37 23.5 -61.5t70.5 -24.5q63 0 115.5 23.5t105.5 64.5v127 l-197 -31q-49 -8 -83.5 -26.5t-34.5 -71.5z" />
<glyph unicode="&#xe4;" d="M47 260q0 147 99.5 218t277.5 87l303 27v31q0 61 -63.5 91.5t-176.5 30.5q-76 0 -162.5 -12t-170.5 -35l-62 271q104 31 211 51t225 20q268 0 407.5 -102t139.5 -285v-653h-205l-65 109q-96 -76 -187.5 -106t-199.5 -30q-186 0 -278.5 76t-92.5 211zM129 1343 q0 43 16.5 80t45 65t66.5 44t83 16q41 0 79 -16t65.5 -44t44 -65t16.5 -80t-16.5 -81.5t-44 -67.5t-65.5 -45t-79 -16q-45 0 -83 16t-66.5 45t-45 67.5t-16.5 81.5zM412 285q0 -37 23.5 -61.5t70.5 -24.5q63 0 115.5 23.5t105.5 64.5v127l-197 -31q-49 -8 -83.5 -26.5 t-34.5 -71.5zM627 1343q0 43 16 80t45 65t67 44t83 16q41 0 78.5 -16t65.5 -44t44 -65t16 -80t-16 -81.5t-44 -67.5t-65.5 -45t-78.5 -16q-45 0 -83 16t-67 45t-45 67.5t-16 81.5z" />
<glyph unicode="&#xe5;" d="M47 260q0 147 99.5 218t277.5 87l303 27v31q0 61 -63.5 91.5t-176.5 30.5q-76 0 -162.5 -12t-170.5 -35l-62 271q104 31 211 51t225 20q268 0 407.5 -102t139.5 -285v-653h-205l-65 109q-96 -76 -187.5 -106t-199.5 -30q-186 0 -278.5 76t-92.5 211zM307 1405 q0 57 21.5 105.5t59.5 84t92.5 56t119.5 20.5q63 0 115.5 -20.5t90.5 -56t59.5 -84t21.5 -105.5q0 -59 -21.5 -109.5t-59.5 -87.5t-90 -57.5t-116 -20.5q-145 0 -219 78t-74 197zM412 285q0 -37 23.5 -61.5t70.5 -24.5q63 0 115.5 23.5t105.5 64.5v127l-197 -31 q-49 -8 -83.5 -26.5t-34.5 -71.5zM500 1403q0 -51 29.5 -75.5t72.5 -24.5q37 0 66.5 26.5t29.5 73.5q0 45 -29.5 69.5t-66.5 24.5q-43 0 -72.5 -25.5t-29.5 -68.5z" />
<glyph unicode="&#xe6;" horiz-adv-x="1851" d="M47 260q0 152 99.5 220.5t277.5 84.5l303 27v31q0 61 -63.5 91.5t-176.5 30.5q-78 0 -163.5 -12t-169.5 -35l-62 271q102 31 204.5 51t231.5 20q137 0 241.5 -27.5t174.5 -80.5q72 53 157 80.5t177 27.5q106 0 202.5 -38.5t170 -113.5t116.5 -182.5t43 -244.5h-714 q20 -76 84.5 -123t152.5 -47q53 0 105.5 18.5t93.5 59.5l225 -199q-80 -96 -205 -146.5t-254 -50.5q-117 0 -224 41t-187 117q-117 -86 -233.5 -122t-235.5 -36q-186 0 -278.5 75t-92.5 212zM412 285q0 -29 23.5 -48.5t70.5 -19.5q74 0 132 25.5t124 72.5q-16 39 -25 86 l-207 -32q-49 -8 -83.5 -22.5t-34.5 -61.5zM1096 596l338 16q-20 78 -63.5 115t-102.5 37q-37 0 -65.5 -14.5t-50.5 -39t-35 -54t-21 -60.5z" />
<glyph unicode="&#xe7;" horiz-adv-x="1089" d="M55 502q0 121 45 220t122 170t175.5 109.5t206.5 38.5q57 0 119.5 -12t121 -35.5t111 -57.5t91.5 -79l-250 -215q-37 35 -80 58.5t-113 23.5q-41 0 -74.5 -16.5t-60.5 -46t-41 -68.5t-14 -84q0 -94 57 -155.5t141 -61.5q53 0 95.5 19.5t95.5 58.5l250 -209 q-37 -43 -84 -76t-101.5 -55.5t-112 -37t-112.5 -16.5l-22 -75q100 -6 140 -45t40 -88q0 -70 -65.5 -120t-170.5 -50q-66 0 -103.5 19t-53.5 42l34 82q23 -20 46.5 -24.5t50.5 -4.5q29 0 46 13.5t17 42.5t-35 42t-94 13l47 158q-94 12 -179 55t-148.5 110.5t-100.5 157.5 t-37 199z" />
<glyph unicode="&#xe8;" d="M55 502q0 121 45 220t122 170t175.5 109.5t206.5 38.5q106 0 202.5 -38.5t170.5 -113.5t117 -182.5t43 -244.5h-717q18 -88 82.5 -129t156.5 -41q53 0 105.5 18.5t93.5 59.5l225 -199q-80 -96 -203.5 -146.5t-254.5 -50.5q-111 0 -214.5 37t-182 104.5t-126 166 t-47.5 221.5zM254 1452h397l123 -319h-315zM420 596l342 14q-43 154 -168 154q-78 0 -119 -51t-55 -117z" />
<glyph unicode="&#xe9;" d="M55 502q0 121 45 220t122 170t175.5 109.5t206.5 38.5q106 0 202.5 -38.5t170.5 -113.5t117 -182.5t43 -244.5h-717q18 -88 82.5 -129t156.5 -41q53 0 105.5 18.5t93.5 59.5l225 -199q-80 -96 -203.5 -146.5t-254.5 -50.5q-111 0 -214.5 37t-182 104.5t-126 166 t-47.5 221.5zM420 596l342 14q-43 154 -168 154q-78 0 -119 -51t-55 -117zM438 1130l123 320h397l-204 -320h-316z" />
<glyph unicode="&#xea;" d="M55 502q0 121 45 220t122 170t175.5 109.5t206.5 38.5q106 0 202.5 -38.5t170.5 -113.5t117 -182.5t43 -244.5h-717q18 -88 82.5 -129t156.5 -41q53 0 105.5 18.5t93.5 59.5l225 -199q-80 -96 -203.5 -146.5t-254.5 -50.5q-111 0 -214.5 37t-182 104.5t-126 166 t-47.5 221.5zM154 1130l184 320h524l185 -320h-316l-133 203l-131 -203h-313zM420 596l342 14q-43 154 -168 154q-78 0 -119 -51t-55 -117z" />
<glyph unicode="&#xeb;" d="M55 502q0 121 45 220t122 170t175.5 109.5t206.5 38.5q106 0 202.5 -38.5t170.5 -113.5t117 -182.5t43 -244.5h-717q18 -88 82.5 -129t156.5 -41q53 0 105.5 18.5t93.5 59.5l225 -199q-80 -96 -203.5 -146.5t-254.5 -50.5q-111 0 -214.5 37t-182 104.5t-126 166 t-47.5 221.5zM141 1343q0 43 16.5 80t45 65t66.5 44t83 16q41 0 79 -16t65.5 -44t44 -65t16.5 -80t-16.5 -81.5t-44 -67.5t-65.5 -45t-79 -16q-45 0 -83 16t-66.5 45t-45 67.5t-16.5 81.5zM420 596l342 14q-43 154 -168 154q-78 0 -119 -51t-55 -117zM639 1343q0 43 16.5 80 t45 65t66.5 44t83 16q41 0 79 -16t65.5 -44t44 -65t16.5 -80t-16.5 -81.5t-44 -67.5t-65.5 -45t-79 -16q-45 0 -83 16t-66.5 45t-45 67.5t-16.5 81.5z" />
<glyph unicode="&#xec;" horiz-adv-x="573" d="M-70 1452h398l123 -319h-316zM113 0v1014h348v-1014h-348z" />
<glyph unicode="&#xed;" horiz-adv-x="573" d="M113 0v1014h348v-1014h-348zM125 1130l123 320h397l-205 -320h-315z" />
<glyph unicode="&#xee;" horiz-adv-x="573" d="M-162 1130l185 320h524l184 -320h-315l-133 203l-131 -203h-314zM113 0v1014h348v-1014h-348z" />
<glyph unicode="&#xef;" horiz-adv-x="573" d="M-174 1343q0 43 16.5 80t45 65t66.5 44t83 16q41 0 79 -16t65.5 -44t44 -65t16.5 -80t-16.5 -81.5t-44 -67.5t-65.5 -45t-79 -16q-45 0 -83 16t-66.5 45t-45 67.5t-16.5 81.5zM113 0v1014h348v-1014h-348zM324 1343q0 43 16 80t45 65t66.5 44t83.5 16q41 0 78.5 -16 t65.5 -44t44 -65t16 -80t-16 -81.5t-44 -67.5t-65.5 -45t-78.5 -16q-45 0 -83 16t-67 45t-45 67.5t-16 81.5z" />
<glyph unicode="&#xf0;" horiz-adv-x="1198" d="M55 469q0 113 43 197t118 140t174 84t212 28q29 0 64.5 -7.5t76.5 -17.5q-18 90 -67 149l-96 -98l-72 80l82 82q-80 37 -178 37q-61 0 -118.5 -11.5t-119.5 -33.5l-104 252q102 35 196 47t176 12q100 0 193.5 -19.5t171.5 -62.5l154 156l73 -78l-137 -139 q102 -90 163.5 -247t61.5 -403v-10q0 -160 -45 -278.5t-120.5 -197.5t-177 -118t-212.5 -39q-115 0 -209 38t-161.5 104.5t-104.5 158t-37 195.5zM424 453q0 -68 48 -105t118 -37q66 0 114 35t48 105q0 55 -46.5 92t-111.5 37q-72 0 -121 -33t-49 -94z" />
<glyph unicode="&#xf1;" horiz-adv-x="1271" d="M113 0v1014h227l55 -146q76 90 167 131t196 41q82 0 155.5 -24.5t131 -75.5t91 -132t33.5 -192v-616h-348v535q0 88 -47 127.5t-119 39.5q-102 0 -194 -77v-625h-348zM262 1159q4 156 72.5 231.5t157.5 75.5q37 0 81.5 -11t92 -25.5t96.5 -25.5t94 -11q29 0 51.5 12 t26.5 47h113q0 -154 -55.5 -236.5t-162.5 -82.5q-43 0 -94 11t-102 25.5t-99.5 25.5t-87.5 11q-57 0 -67 -47h-117z" />
<glyph unicode="&#xf2;" horiz-adv-x="1253" d="M55 502q0 121 47.5 220t126 170t182 109.5t214.5 38.5q115 0 218 -38.5t182 -109.5t126 -170t47 -220t-47 -218.5t-126 -166t-182 -106.5t-218 -38q-111 0 -214.5 38t-182 106.5t-126 166t-47.5 218.5zM281 1452h397l123 -319h-316zM414 502q0 -92 59.5 -151.5 t151.5 -59.5q45 0 84 15.5t68.5 44t46 66.5t16.5 85q0 45 -16.5 86t-46 70.5t-68.5 47t-84 17.5q-90 0 -150.5 -63.5t-60.5 -157.5z" />
<glyph unicode="&#xf3;" horiz-adv-x="1253" d="M55 502q0 121 47.5 220t126 170t182 109.5t214.5 38.5q115 0 218 -38.5t182 -109.5t126 -170t47 -220t-47 -218.5t-126 -166t-182 -106.5t-218 -38q-111 0 -214.5 38t-182 106.5t-126 166t-47.5 218.5zM414 502q0 -92 59.5 -151.5t151.5 -59.5q45 0 84 15.5t68.5 44 t46 66.5t16.5 85q0 45 -16.5 86t-46 70.5t-68.5 47t-84 17.5q-90 0 -150.5 -63.5t-60.5 -157.5zM444 1130l123 320h398l-205 -320h-316z" />
<glyph unicode="&#xf4;" horiz-adv-x="1253" d="M55 502q0 121 47.5 220t126 170t182 109.5t214.5 38.5q115 0 218 -38.5t182 -109.5t126 -170t47 -220t-47 -218.5t-126 -166t-182 -106.5t-218 -38q-111 0 -214.5 38t-182 106.5t-126 166t-47.5 218.5zM176 1130l184 320h525l184 -320h-315l-133 203l-132 -203h-313z M414 502q0 -92 59.5 -151.5t151.5 -59.5q45 0 84 15.5t68.5 44t46 66.5t16.5 85q0 45 -16.5 86t-46 70.5t-68.5 47t-84 17.5q-90 0 -150.5 -63.5t-60.5 -157.5z" />
<glyph unicode="&#xf5;" horiz-adv-x="1253" d="M55 502q0 121 47.5 220t126 170t182 109.5t214.5 38.5q115 0 218 -38.5t182 -109.5t126 -170t47 -220t-47 -218.5t-126 -166t-182 -106.5t-218 -38q-111 0 -214.5 38t-182 106.5t-126 166t-47.5 218.5zM246 1159q4 156 72.5 231.5t156.5 75.5q37 0 82 -11t92 -25.5 t96.5 -25.5t94.5 -11q29 0 51 12t27 47h112q0 -154 -55 -236.5t-162 -82.5q-43 0 -94 11t-102.5 25.5t-99.5 25.5t-87 11q-57 0 -68 -47h-116zM414 502q0 -92 59.5 -151.5t151.5 -59.5q45 0 84 15.5t68.5 44t46 66.5t16.5 85q0 45 -16.5 86t-46 70.5t-68.5 47t-84 17.5 q-90 0 -150.5 -63.5t-60.5 -157.5z" />
<glyph unicode="&#xf6;" horiz-adv-x="1253" d="M55 502q0 121 47.5 220t126 170t182 109.5t214.5 38.5q115 0 218 -38.5t182 -109.5t126 -170t47 -220t-47 -218.5t-126 -166t-182 -106.5t-218 -38q-111 0 -214.5 38t-182 106.5t-126 166t-47.5 218.5zM176 1343q0 43 16.5 80t45 65t66.5 44t83 16q41 0 79 -16t65.5 -44 t44 -65t16.5 -80t-16.5 -81.5t-44 -67.5t-65.5 -45t-79 -16q-45 0 -83 16t-66.5 45t-45 67.5t-16.5 81.5zM414 502q0 -92 59.5 -151.5t151.5 -59.5q45 0 84 15.5t68.5 44t46 66.5t16.5 85q0 45 -16.5 86t-46 70.5t-68.5 47t-84 17.5q-90 0 -150.5 -63.5t-60.5 -157.5z M674 1343q0 43 16.5 80t45 65t66.5 44t83 16q41 0 78.5 -16t65.5 -44t44.5 -65t16.5 -80t-16.5 -81.5t-44.5 -67.5t-65.5 -45t-78.5 -16q-45 0 -83 16t-66.5 45t-45 67.5t-16.5 81.5z" />
<glyph unicode="&#xf7;" horiz-adv-x="1017" d="M66 401v211h886v-211h-886zM326 160q0 37 14 69.5t40 57t59.5 39t72.5 14.5q37 0 69.5 -14.5t57.5 -39t39 -57t14 -69.5q0 -39 -14 -73t-39 -59.5t-57.5 -40t-69.5 -14.5q-39 0 -72.5 14.5t-59.5 40t-40 59.5t-14 73zM326 860q0 37 14 70t40 57.5t59.5 38.5t72.5 14 q37 0 69.5 -14t57.5 -38.5t39 -57.5t14 -70q0 -39 -14 -72.5t-39 -59.5t-57.5 -40t-69.5 -14q-39 0 -72.5 14t-59.5 40t-40 59.5t-14 72.5z" />
<glyph unicode="&#xf8;" horiz-adv-x="1253" d="M55 502q0 121 47.5 220t126 170t182 109.5t214.5 38.5q88 0 168.5 -23.5t152.5 -66.5l180 232h76l-207 -264q92 -72 147.5 -177.5t55.5 -238.5q0 -121 -47 -218.5t-126 -166t-182 -106.5t-218 -38q-84 0 -161 20.5t-145 59.5l-169 -217h-76l194 250q-96 70 -154.5 175.5 t-58.5 240.5zM414 502q0 -92 61 -154l266 340q-51 35 -116 35q-90 0 -150.5 -63.5t-60.5 -157.5zM522 313q50 -22 103 -22q45 0 84 15.5t68.5 44t46 66.5t16.5 85q0 86 -56 147z" />
<glyph unicode="&#xf9;" horiz-adv-x="1267" d="M98 446v568h348v-510q0 -98 50.5 -145.5t128.5 -47.5q92 0 182 76v627h348v-1014h-227l-56 143q-78 -90 -173 -130t-189 -40q-80 0 -153.5 28t-131 85t-92.5 147.5t-35 212.5zM307 1452h398l122 -319h-315z" />
<glyph unicode="&#xfa;" horiz-adv-x="1267" d="M98 446v568h348v-510q0 -98 50.5 -145.5t128.5 -47.5q92 0 182 76v627h348v-1014h-227l-56 143q-78 -90 -173 -130t-189 -40q-80 0 -153.5 28t-131 85t-92.5 147.5t-35 212.5zM467 1130l123 320h397l-205 -320h-315z" />
<glyph unicode="&#xfb;" horiz-adv-x="1267" d="M98 446v568h348v-510q0 -98 50.5 -145.5t128.5 -47.5q92 0 182 76v627h348v-1014h-227l-56 143q-78 -90 -173 -130t-189 -40q-80 0 -153.5 28t-131 85t-92.5 147.5t-35 212.5zM186 1130l185 320h524l184 -320h-315l-133 203l-131 -203h-314z" />
<glyph unicode="&#xfc;" horiz-adv-x="1267" d="M98 446v568h348v-510q0 -98 50.5 -145.5t128.5 -47.5q92 0 182 76v627h348v-1014h-227l-56 143q-78 -90 -173 -130t-189 -40q-80 0 -153.5 28t-131 85t-92.5 147.5t-35 212.5zM184 1343q0 43 16.5 80t45 65t66.5 44t83 16q41 0 79 -16t65.5 -44t44 -65t16.5 -80 t-16.5 -81.5t-44 -67.5t-65.5 -45t-79 -16q-45 0 -83 16t-66.5 45t-45 67.5t-16.5 81.5zM682 1343q0 43 16.5 80t45 65t66.5 44t83 16q41 0 79 -16t65.5 -44t44 -65t16.5 -80t-16.5 -81.5t-44 -67.5t-65.5 -45t-79 -16q-45 0 -83 16t-66.5 45t-45 67.5t-16.5 81.5z" />
<glyph unicode="&#xfd;" horiz-adv-x="1138" d="M2 1014h381l190 -541l199 541h381l-385 -838q-135 -324 -302 -491.5t-392 -167.5v317q43 0 91 16.5t94 49t86 82t69 112.5zM430 1130l123 320h397l-205 -320h-315z" />
<glyph unicode="&#xfe;" horiz-adv-x="1277" d="M113 -483v1945h348v-479q53 27 109.5 42t115.5 15q111 0 208 -38.5t170 -109.5t115 -169t42 -219t-42 -218.5t-114 -167t-166.5 -107.5t-200.5 -38q-74 0 -138 18.5t-118 47.5l19 -176v-346h-348zM436 504q0 -92 59.5 -152.5t151.5 -60.5q45 0 84 16.5t67.5 44t46 66.5 t17.5 86q0 45 -17.5 86t-46 69.5t-67.5 46t-84 17.5t-83 -17.5t-66.5 -46t-45 -69.5t-16.5 -86z" />
<glyph unicode="&#xff;" horiz-adv-x="1138" d="M2 1014h381l190 -541l199 541h381l-385 -838q-135 -324 -302 -491.5t-392 -167.5v317q43 0 91 16.5t94 49t86 82t69 112.5zM137 1343q0 43 16.5 80t45 65t66.5 44t83 16q41 0 79 -16t65.5 -44t44 -65t16.5 -80t-16.5 -81.5t-44 -67.5t-65.5 -45t-79 -16q-45 0 -83 16 t-66.5 45t-45 67.5t-16.5 81.5zM635 1343q0 43 16.5 80t45 65t66.5 44t83 16q41 0 79 -16t65.5 -44t44 -65t16.5 -80t-16.5 -81.5t-44 -67.5t-65.5 -45t-79 -16q-45 0 -83 16t-66.5 45t-45 67.5t-16.5 81.5z" />
<glyph unicode="&#x152;" horiz-adv-x="2146" d="M68 690q0 143 53 269t145 220.5t215 148.5t262 54h1301v-327h-658v-203h617v-328h-617v-196h664v-328h-1307q-139 0 -262 54.5t-215 147.5t-145 219t-53 269zM438 690q0 -78 28 -145.5t75 -118.5t109.5 -81t133.5 -30h244v758h-223q-76 0 -142.5 -30.5t-116.5 -83 t-79 -122t-29 -147.5z" />
<glyph unicode="&#x153;" horiz-adv-x="1964" d="M55 502q0 121 47.5 220t126 170t182 109.5t214.5 38.5t212 -36.5t179 -104.5q76 68 173 104.5t202 36.5q106 0 202.5 -38.5t170 -113.5t116.5 -182.5t43 -244.5h-717q18 -88 83 -129t157 -41q53 0 105.5 18.5t93.5 59.5l225 -199q-80 -96 -204 -146.5t-255 -50.5 q-111 0 -213 36t-180 102q-78 -66 -179.5 -102t-213.5 -36q-111 0 -214.5 38t-182 106.5t-126 166t-47.5 218.5zM414 502q0 -92 59.5 -151.5t151.5 -59.5q45 0 84 15.5t68.5 44t46 66.5t16.5 85q0 45 -16.5 86t-46 70.5t-68.5 47t-84 17.5q-90 0 -150.5 -63.5t-60.5 -157.5z M1206 596l342 14q-43 154 -168 154q-78 0 -118.5 -51t-55.5 -117z" />
<glyph unicode="&#x178;" horiz-adv-x="1460" d="M-14 1382h411l336 -618l344 618h396l-564 -925v-457h-358v457zM272 1704q0 43 16.5 80t45 64.5t66.5 44t83 16.5q41 0 79 -16.5t65.5 -44t44 -64.5t16.5 -80t-16.5 -82t-44 -67.5t-65.5 -45t-79 -16.5q-45 0 -83 16.5t-66.5 45t-45 67.5t-16.5 82zM770 1704q0 43 16.5 80 t45 64.5t66.5 44t83 16.5q41 0 79 -16.5t65.5 -44t44 -64.5t16.5 -80t-16.5 -82t-44 -67.5t-65.5 -45t-79 -16.5q-45 0 -83 16.5t-66.5 45t-45 67.5t-16.5 82z" />
<glyph unicode="&#x2c6;" horiz-adv-x="995" d="M51 1130l185 320h524l184 -320h-315l-133 203l-131 -203h-314z" />
<glyph unicode="&#x2dc;" horiz-adv-x="804" d="M10 1159q4 156 73 231.5t157 75.5q37 0 82 -11t92 -25.5t96 -25.5t94 -11q29 0 51.5 12t26.5 47h113q0 -154 -55.5 -236.5t-161.5 -82.5q-43 0 -94.5 11t-102.5 25.5t-99.5 25.5t-86.5 11q-57 0 -68 -47h-117z" />
<glyph unicode="&#x2000;" horiz-adv-x="954" />
<glyph unicode="&#x2001;" horiz-adv-x="1909" />
<glyph unicode="&#x2002;" horiz-adv-x="954" />
<glyph unicode="&#x2003;" horiz-adv-x="1909" />
<glyph unicode="&#x2004;" horiz-adv-x="636" />
<glyph unicode="&#x2005;" horiz-adv-x="477" />
<glyph unicode="&#x2006;" horiz-adv-x="318" />
<glyph unicode="&#x2007;" horiz-adv-x="318" />
<glyph unicode="&#x2008;" horiz-adv-x="238" />
<glyph unicode="&#x2009;" horiz-adv-x="381" />
<glyph unicode="&#x200a;" horiz-adv-x="106" />
<glyph unicode="&#x2010;" horiz-adv-x="1067" d="M111 338v328h845v-328h-845z" />
<glyph unicode="&#x2011;" horiz-adv-x="1067" d="M111 338v328h845v-328h-845z" />
<glyph unicode="&#x2012;" horiz-adv-x="1067" d="M111 338v328h845v-328h-845z" />
<glyph unicode="&#x2013;" horiz-adv-x="1210" d="M111 344v307h989v-307h-989z" />
<glyph unicode="&#x2014;" horiz-adv-x="1622" d="M111 344v307h1400v-307h-1400z" />
<glyph unicode="&#x2018;" horiz-adv-x="546" d="M68 963q2 119 63.5 232.5t214.5 213.5l49 -68q-45 -51 -73.5 -98t-42.5 -96q43 -2 79.5 -18.5t64.5 -45t44 -66.5t16 -81t-16 -80t-45 -64.5t-67 -44t-83 -16.5q-41 0 -78.5 18.5t-65.5 50t-44 74t-16 89.5z" />
<glyph unicode="&#x2019;" horiz-adv-x="540" d="M66 1204q0 43 16 80t45 64.5t66.5 44t82.5 16.5q41 0 79 -18.5t66 -50t44 -73.5t16 -89q0 -117 -62.5 -230.5t-215.5 -216.5l-49 68q43 51 71.5 98t44.5 96q-43 0 -80.5 17.5t-65.5 46t-43 66.5t-15 81z" />
<glyph unicode="&#x201a;" horiz-adv-x="575" d="M78 186q0 43 16.5 80t45 64.5t66.5 44t83 16.5q41 0 79 -18.5t65.5 -50t44 -73.5t16.5 -89q0 -117 -62.5 -230.5t-216.5 -216.5l-49 68q43 51 71.5 98t45.5 96q-43 2 -81 18.5t-65.5 45.5t-43 66.5t-15.5 80.5z" />
<glyph unicode="&#x201c;" horiz-adv-x="1038" d="M70 963q0 117 62.5 230.5t215.5 215.5l49 -68q-33 -39 -57.5 -69.5t-40.5 -65.5q-16 -31 -23 -59q43 0 82 -17.5t67 -46t44 -66.5t16 -81t-16 -80t-45 -64.5t-67 -44t-83 -16.5q-41 0 -78.5 18.5t-65.5 50t-44 73.5t-16 90zM559 963q2 119 63.5 232.5t215.5 213.5l49 -68 q-29 -35 -52.5 -64.5t-39.5 -57.5q-10 -16 -17.5 -35t-11.5 -37q43 0 82 -17.5t66.5 -46t44 -66.5t16.5 -81t-16.5 -80t-45 -64.5t-66.5 -44t-83 -16.5q-41 0 -79 18.5t-65.5 50t-44 74t-16.5 89.5z" />
<glyph unicode="&#x201d;" horiz-adv-x="1032" d="M66 1204q0 43 16 80t45 64.5t66.5 44t82.5 16.5q41 0 79 -18.5t66 -50t44 -73.5t16 -89q0 -117 -62.5 -230.5t-215.5 -216.5l-49 68q35 41 61.5 74.5t42.5 70.5q4 10 8 22.5t8 26.5q-90 0 -149 61.5t-59 149.5zM555 1204q0 43 16.5 80t45 64.5t66.5 44t83 16.5 q41 0 79 -18.5t65.5 -50t44 -73.5t16.5 -89v-9q-2 -115 -64.5 -226.5t-214.5 -211.5l-49 68q35 41 61.5 75.5t43.5 71.5q10 27 16 47q-90 0 -149.5 61.5t-59.5 149.5z" />
<glyph unicode="&#x201e;" horiz-adv-x="1050" d="M78 186q0 43 16.5 80t45 64.5t66.5 44t83 16.5q41 0 79 -18.5t65.5 -50t44 -73.5t16.5 -89q0 -117 -62.5 -230.5t-216.5 -216.5l-49 68q43 51 71.5 98t45.5 96q-43 2 -81 18.5t-65.5 45.5t-43 66.5t-15.5 80.5zM553 186q0 43 16.5 80t45 64.5t66.5 44t83 16.5 q41 0 79 -18.5t65.5 -50t44 -73.5t16.5 -89q0 -117 -62.5 -230.5t-216.5 -216.5l-49 68q43 51 71.5 98t45.5 96q-43 2 -81 18.5t-65.5 45.5t-43 66.5t-15.5 80.5z" />
<glyph unicode="&#x2022;" horiz-adv-x="835" d="M125 496q0 61 22.5 114.5t61.5 93t92 63.5t115 24q61 0 114.5 -24t93.5 -63.5t63.5 -93t23.5 -114.5t-23.5 -113.5t-63.5 -92.5t-93.5 -62.5t-114.5 -22.5t-114.5 22.5t-92.5 62.5t-61.5 92.5t-22.5 113.5z" />
<glyph unicode="&#x2026;" horiz-adv-x="1503" d="M78 184q0 43 16.5 80t45 64.5t66.5 44t83 16.5q41 0 79 -16.5t65.5 -44t44 -64.5t16.5 -80t-16.5 -82t-44 -67.5t-65.5 -45t-79 -16.5q-45 0 -83 16.5t-66.5 45t-45 67.5t-16.5 82zM545 184q0 43 16.5 80t45 64.5t66.5 44t83 16.5q41 0 78.5 -16.5t65.5 -44t44.5 -64.5 t16.5 -80t-16.5 -82t-44.5 -67.5t-65.5 -45t-78.5 -16.5q-45 0 -83 16.5t-66.5 45t-45 67.5t-16.5 82zM1010 184q0 43 16 80t45 64.5t67 44t83 16.5q41 0 78.5 -16.5t65.5 -44t44 -64.5t16 -80t-16 -82t-44 -67.5t-65.5 -45t-78.5 -16.5q-45 0 -83 16.5t-67 45t-45 67.5 t-16 82z" />
<glyph unicode="&#x202f;" horiz-adv-x="381" />
<glyph unicode="&#x2039;" horiz-adv-x="671" d="M84 301v418l481 268v-352l-264 -123l264 -119v-356z" />
<glyph unicode="&#x203a;" horiz-adv-x="671" d="M106 37v356l265 119l-265 123v352l482 -268v-418z" />
<glyph unicode="&#x205f;" horiz-adv-x="477" />
<glyph unicode="&#x20ac;" horiz-adv-x="1591" d="M63 735l62 191h154q37 104 105.5 193t158.5 153.5t200.5 100.5t231.5 36q164 0 303 -62.5t242 -170.5l-254 -240q-47 66 -128 100.5t-163 34.5q-88 0 -163 -40t-126 -105h377l-62 -191h-393q-2 -12 -2 -23.5v-21.5v-27.5t4 -27.5h365l-62 -191h-219q51 -61 124 -97 t157 -36q78 0 158.5 33t128.5 94l247 -243q-100 -104 -237 -163t-297 -59q-121 0 -229.5 35t-199.5 97.5t-159 148.5t-106 190h-213l61 191h111q-2 14 -2 27.5v27.5v21.5t2 23.5h-177z" />
<glyph unicode="&#x2122;" horiz-adv-x="1638" d="M61 1311v71h529l-10 -71h-218v-701h-71v701h-230zM748 610v772h71l305 -634l299 634h72v-772h-72v619l-258 -555h-80l-266 557v-621h-71z" />
<glyph unicode="&#x25fc;" horiz-adv-x="1013" d="M0 0v1014h1014v-1014h-1014z" />
</font>
</defs>
</svg>
